<svg fill="none" height="128" viewBox="0 0 128 128" width="128" xmlns="http://www.w3.org/2000/svg" xmlns:xlink="http://www.w3.org/1999/xlink"><filter id="a" color-interpolation-filters="sRGB" filterUnits="userSpaceOnUse" height="16" width="41" x="43.5" y="81"><feFlood flood-opacity="0" result="BackgroundImageFix"/><feColorMatrix in="SourceAlpha" result="hardAlpha" type="matrix" values="0 0 0 0 0 0 0 0 0 0 0 0 0 0 0 0 0 0 127 0"/><feOffset dy="-1"/><feGaussianBlur stdDeviation=".5"/><feComposite in2="hardAlpha" operator="out"/><feColorMatrix type="matrix" values="0 0 0 0 0.933333 0 0 0 0 0.811765 0 0 0 0 0.631373 0 0 0 1 0"/><feBlend in2="BackgroundImageFix" mode="normal" result="effect1_dropShadow_124_2"/><feBlend in="SourceGraphic" in2="effect1_dropShadow_124_2" mode="normal" result="shape"/><feColorMatrix in="SourceAlpha" result="hardAlpha" type="matrix" values="0 0 0 0 0 0 0 0 0 0 0 0 0 0 0 0 0 0 127 0"/><feMorphology in="SourceAlpha" operator="erode" radius="1" result="effect2_innerShadow_124_2"/><feOffset dy="2"/><feGaussianBlur stdDeviation="2.5"/><feComposite in2="hardAlpha" k2="-1" k3="1" operator="arithmetic"/><feColorMatrix type="matrix" values="0 0 0 0 0.196078 0 0 0 0 0.129412 0 0 0 0 0.113725 0 0 0 0.99 0"/><feBlend in2="shape" mode="normal" result="effect2_innerShadow_124_2"/></filter><filter id="b" color-interpolation-filters="sRGB" filterUnits="userSpaceOnUse" height="24.1815" width="25.6662" x="51.1669" y="59.0685"><feFlood flood-opacity="0" result="BackgroundImageFix"/><feColorMatrix in="SourceAlpha" result="hardAlpha" type="matrix" values="0 0 0 0 0 0 0 0 0 0 0 0 0 0 0 0 0 0 127 0"/><feOffset dy="2"/><feGaussianBlur stdDeviation="2"/><feComposite in2="hardAlpha" operator="out"/><feColorMatrix type="matrix" values="0 0 0 0 0 0 0 0 0 0 0 0 0 0 0 0 0 0 0.25 0"/><feBlend in2="BackgroundImageFix" mode="normal" result="effect1_dropShadow_124_2"/><feBlend in="SourceGraphic" in2="effect1_dropShadow_124_2" mode="normal" result="shape"/></filter><filter id="c" color-interpolation-filters="sRGB" filterUnits="userSpaceOnUse" height="28" width="28" x="29" y="45"><feFlood flood-opacity="0" result="BackgroundImageFix"/><feColorMatrix in="SourceAlpha" result="hardAlpha" type="matrix" values="0 0 0 0 0 0 0 0 0 0 0 0 0 0 0 0 0 0 127 0"/><feMorphology in="SourceAlpha" operator="dilate" radius="1" result="effect1_dropShadow_124_2"/><feOffset dy="1"/><feGaussianBlur stdDeviation=".5"/><feComposite in2="hardAlpha" operator="out"/><feColorMatrix type="matrix" values="0 0 0 0 0.957778 0 0 0 0 0.884416 0 0 0 0 0.775556 0 0 0 0.6 0"/><feBlend in2="BackgroundImageFix" mode="normal" result="effect1_dropShadow_124_2"/><feBlend in="SourceGraphic" in2="effect1_dropShadow_124_2" mode="normal" result="shape"/></filter><filter id="d" color-interpolation-filters="sRGB" filterUnits="userSpaceOnUse" height="16" width="16" x="35" y="50"><feFlood flood-opacity="0" result="BackgroundImageFix"/><feBlend in="SourceGraphic" in2="BackgroundImageFix" mode="normal" result="shape"/><feColorMatrix in="SourceAlpha" result="hardAlpha" type="matrix" values="0 0 0 0 0 0 0 0 0 0 0 0 0 0 0 0 0 0 127 0"/><feMorphology in="SourceAlpha" operator="erode" radius="1" result="effect1_innerShadow_124_2"/><feOffset/><feGaussianBlur stdDeviation=".5"/><feComposite in2="hardAlpha" k2="-1" k3="1" operator="arithmetic"/><feColorMatrix type="matrix" values="0 0 0 0 0.513725 0 0 0 0 0.380392 0 0 0 0 0.290196 0 0 0 0.23 0"/><feBlend in2="shape" mode="normal" result="effect1_innerShadow_124_2"/></filter><filter id="e" color-interpolation-filters="sRGB" filterUnits="userSpaceOnUse" height="24" width="24" x="31" y="46"><feFlood flood-opacity="0" result="BackgroundImageFix"/><feBlend in="SourceGraphic" in2="BackgroundImageFix" mode="normal" result="shape"/><feColorMatrix in="SourceAlpha" result="hardAlpha" type="matrix" values="0 0 0 0 0 0 0 0 0 0 0 0 0 0 0 0 0 0 127 0"/><feMorphology in="SourceAlpha" operator="erode" radius="1" result="effect1_innerShadow_124_2"/><feOffset/><feGaussianBlur stdDeviation=".5"/><feComposite in2="hardAlpha" k2="-1" k3="1" operator="arithmetic"/><feColorMatrix type="matrix" values="0 0 0 0 0.513725 0 0 0 0 0.380392 0 0 0 0 0.290196 0 0 0 0.23 0"/><feBlend in2="shape" mode="normal" result="effect1_innerShadow_124_2"/></filter><filter id="f" color-interpolation-filters="sRGB" filterUnits="userSpaceOnUse" height="28" width="28" x="71" y="45"><feFlood flood-opacity="0" result="BackgroundImageFix"/><feColorMatrix in="SourceAlpha" result="hardAlpha" type="matrix" values="0 0 0 0 0 0 0 0 0 0 0 0 0 0 0 0 0 0 127 0"/><feMorphology in="SourceAlpha" operator="dilate" radius="1" result="effect1_dropShadow_124_2"/><feOffset dy="1"/><feGaussianBlur stdDeviation=".5"/><feComposite in2="hardAlpha" operator="out"/><feColorMatrix type="matrix" values="0 0 0 0 0.957778 0 0 0 0 0.884416 0 0 0 0 0.775556 0 0 0 0.6 0"/><feBlend in2="BackgroundImageFix" mode="normal" result="effect1_dropShadow_124_2"/><feBlend in="SourceGraphic" in2="effect1_dropShadow_124_2" mode="normal" result="shape"/></filter><filter id="g" color-interpolation-filters="sRGB" filterUnits="userSpaceOnUse" height="16" width="16" x="77" y="50"><feFlood flood-opacity="0" result="BackgroundImageFix"/><feBlend in="SourceGraphic" in2="BackgroundImageFix" mode="normal" result="shape"/><feColorMatrix in="SourceAlpha" result="hardAlpha" type="matrix" values="0 0 0 0 0 0 0 0 0 0 0 0 0 0 0 0 0 0 127 0"/><feMorphology in="SourceAlpha" operator="erode" radius="1" result="effect1_innerShadow_124_2"/><feOffset/><feGaussianBlur stdDeviation=".5"/><feComposite in2="hardAlpha" k2="-1" k3="1" operator="arithmetic"/><feColorMatrix type="matrix" values="0 0 0 0 0.513725 0 0 0 0 0.380392 0 0 0 0 0.290196 0 0 0 0.23 0"/><feBlend in2="shape" mode="normal" result="effect1_innerShadow_124_2"/></filter><filter id="h" color-interpolation-filters="sRGB" filterUnits="userSpaceOnUse" height="24" width="24" x="73" y="46"><feFlood flood-opacity="0" result="BackgroundImageFix"/><feBlend in="SourceGraphic" in2="BackgroundImageFix" mode="normal" result="shape"/><feColorMatrix in="SourceAlpha" result="hardAlpha" type="matrix" values="0 0 0 0 0 0 0 0 0 0 0 0 0 0 0 0 0 0 127 0"/><feMorphology in="SourceAlpha" operator="erode" radius="1" result="effect1_innerShadow_124_2"/><feOffset/><feGaussianBlur stdDeviation=".5"/><feComposite in2="hardAlpha" k2="-1" k3="1" operator="arithmetic"/><feColorMatrix type="matrix" values="0 0 0 0 0.513725 0 0 0 0 0.380392 0 0 0 0 0.290196 0 0 0 0.23 0"/><feBlend in2="shape" mode="normal" result="effect1_innerShadow_124_2"/></filter><linearGradient id="i" gradientUnits="userSpaceOnUse" x1="64" x2="64" y1="26" y2="114"><stop offset=".369792" stop-color="#efc8b7"/><stop offset=".822917" stop-color="#dda19d"/></linearGradient><linearGradient id="j" gradientUnits="userSpaceOnUse" x1="64" x2="64" y1="26" y2="114"><stop offset="0" stop-color="#f2cdba"/><stop offset="1" stop-color="#c78178"/></linearGradient><linearGradient id="k" gradientUnits="userSpaceOnUse" x1="63.8644" x2="63.8644" y1="41.0314" y2="63"><stop offset="0" stop-color="#792d1f"/><stop offset="1" stop-color="#863a28"/></linearGradient><radialGradient id="l" cx="0" cy="0" gradientTransform="matrix(0 11.5 -11 0 64 71.5)" gradientUnits="userSpaceOnUse" r="1"><stop offset="0" stop-color="#f4cedd"/><stop offset=".505208" stop-color="#db4655"/><stop offset=".744792" stop-color="#590000"/></radialGradient><linearGradient id="m"><stop offset=".25" stop-color="#db4655"/><stop offset=".40625" stop-color="#f4cedd"/><stop offset=".744792" stop-color="#6f2f3f"/></linearGradient><linearGradient id="n" gradientUnits="userSpaceOnUse" x1="64" x2="64" xlink:href="#m" y1="60" y2="83"/><linearGradient id="o"><stop offset="0" stop-color="#fdc1ac"/><stop offset=".495379" stop-color="#e9af9b"/><stop offset=".500363" stop-color="#986d5f"/><stop offset="1" stop-color="#976d5f"/></linearGradient><linearGradient id="p" gradientUnits="userSpaceOnUse" x1="43" x2="43" xlink:href="#o" y1="46" y2="70"/><linearGradient id="q"><stop offset=".494792" stop-color="#e9fefe"/><stop offset=".567708" stop-color="#e1ecf3"/></linearGradient><linearGradient id="r" gradientUnits="userSpaceOnUse" x1="43" x2="43" xlink:href="#q" y1="51" y2="65"/><linearGradient id="s" gradientUnits="userSpaceOnUse" x1="85" x2="85" xlink:href="#o" y1="46" y2="70"/><linearGradient id="t" gradientUnits="userSpaceOnUse" x1="85" x2="85" xlink:href="#q" y1="51" y2="65"/><radialGradient id="u" cx="0" cy="0" gradientTransform="matrix(25.30195894 55.40063085 -123.73883945 56.51262426 45.1911 14.5605)" gradientUnits="userSpaceOnUse" r="1"><stop offset=".166667" stop-color="#866b55"/><stop offset=".298574" stop-color="#876b56" stop-opacity=".21"/></radialGradient><linearGradient id="v"><stop offset=".25" stop-color="#db4655"/><stop offset=".40625" stop-color="#f4cedd"/><stop offset=".744792" stop-color="#590000"/></linearGradient><linearGradient id="w" gradientUnits="userSpaceOnUse" x1="111.5" x2="111.5" xlink:href="#v" y1="53" y2="84"/><linearGradient id="x" gradientUnits="userSpaceOnUse" x1="111.5" x2="111.5" xlink:href="#m" y1="53" y2="84"/><linearGradient id="y" gradientUnits="userSpaceOnUse" x1="16.5" x2="16.5" xlink:href="#v" y1="53" y2="84"/><linearGradient id="z" gradientUnits="userSpaceOnUse" x1="16.5" x2="16.5" xlink:href="#m" y1="53" y2="84"/><rect fill="url(#i)" height="83" rx="14.5" stroke="url(#j)" stroke-width="5" width="83" x="22.5" y="28.5"/><g filter="url(#a)"><rect fill="#fff" height="12" rx="6" width="39" x="44.5" y="83"/><rect height="10" rx="5" stroke="#1d0f0c" stroke-width="2" width="37" x="45.5" y="84"/></g><g fill="#32211d"><path d="m63 85h2v8h-2z"/><path d="m52 85h2v8h-2z"/><path d="m74 85h2v8h-2z"/></g><path clip-rule="evenodd" d="m90.6539 22.7278c-21.283-32.56389-77.4905-21.41496-72.3699 40.2599h4.1463c0-.5001-.0019-1.0105-.0039-1.5291-.0449-11.8213-.1061-27.9547 22.3955-26.5483-8.256-10.0969 1.0413-8.3722 13.681-6.0274 12.8109 2.3765 29.0554 5.39 33.9375-2.6223 8.3916 5.517 13.1176 18.4563 13.1176 36.7394h4.215c0-17.7922-1.666-43.6586-19.1191-40.2722z" fill="url(#k)" fill-rule="evenodd"/><g filter="url(#b)"><path d="m63.1246 61.5851c.3804-.6887 1.3704-.6887 1.7508 0l7.8317 14.1815c.368.6665-.1141 1.4834-.8754 1.4834h-15.6634c-.7613 0-1.2434-.8169-.8754-1.4834z" fill="url(#l)"/><path d="m63.5623 61.8268c.1902-.3443.6852-.3443.8754 0l7.8317 14.1815c.184.3332-.057.7417-.4377.7417h-15.6634c-.3807 0-.6217-.4085-.4377-.7417z" stroke="url(#n)"/></g><g filter="url(#c)"><circle cx="43" cy="58" fill="#fff" r="12"/><circle cx="43" cy="58" r="10" stroke="url(#p)" stroke-width="4"/></g><g filter="url(#d)"><circle cx="43" cy="58" fill="url(#r)" r="7"/></g><circle cx="43" cy="58" r="7.5" stroke="#000" stroke-opacity=".2"/><g filter="url(#e)"><circle cx="43" cy="58" r="11.5" stroke="#000" stroke-opacity=".2"/></g><g filter="url(#f)"><circle cx="85" cy="58" fill="#fff" r="12"/><circle cx="85" cy="58" r="10" stroke="url(#s)" stroke-width="4"/></g><g filter="url(#g)"><circle cx="85" cy="58" fill="url(#t)" r="7"/></g><circle cx="85" cy="58" r="7.5" stroke="#000" stroke-opacity=".2"/><g filter="url(#h)"><circle cx="85" cy="58" r="11.5" stroke="#000" stroke-opacity=".2"/></g><path clip-rule="evenodd" d="m22.441 63h-2.4407v25.7498h-.0003v8.2502c0 9.389 7.6112 17 17 17h6.8582 40.4005 6.7413c9.389 0 17-7.611 17-17v-6.7581-1.4921-25.7498h-2.441v25.7498h-15.4285c-.1247-5.8291-4.5937-10.7498-10.3752-10.7498h-31.5106c-5.7815 0-10.2505 4.9207-10.3752 10.7498h-15.4285zm61.7128 26h-.0206c0-4.0033-2.988-7-6.3779-7h-27.5106c-3.3899 0-6.3779 2.9967-6.3779 7h-.0086v13.159h13.5795v-2.159c0-1.6569 1.3431-3 3-3h7.1246c1.6569 0 3 1.3431 3 3v2.159h13.5915z" fill="#995540" fill-rule="evenodd"/><path d="m109.272 62.5h-1.272-.5v.5 34c0 9.113-7.387 16.5-16.5 16.5h-54c-9.1127 0-16.5-7.387-16.5-16.5l.0003-34.0123v-.5h-.5-1.255c-2.383-30.3962 10.2675-48.2117 26.0079-54.50521 15.8522-6.33815 34.9716-1.06274 45.4821 15.01891l.1839.2813.3299-.064c4.2275-.8203 7.4461.1321 9.9309 2.2514 2.508 2.1397 4.315 5.5094 5.601 9.6018 2.525 8.0333 2.975 18.6266 2.991 27.4281zm-87.3483-1.8068.0015.4986h.0158v27.558.5h.5 15.4285.4894l.0105-.4894c.1196-5.593 4.4003-10.2604 9.8753-10.2604h31.5106c5.475 0 9.7557 4.6674 9.8753 10.2605l.0105.4893h.4894 15.4285.5v-.5-25.7498-.5h-.002c-.086-18.0623-4.807-31.0459-13.3419-36.6572l-.4324-.2843-.2693.4419c-2.2883 3.7555-7.3039 5.016-13.5646 4.9672-6.2201-.0485-13.4379-1.3859-19.8547-2.5763l-.0099-.0018c-3.1523-.5848-6.1138-1.1342-8.6467-1.4696-2.521-.3337-4.6809-.4654-6.203-.1804-.7627.1428-1.4276.4009-1.8918.8484-.4856.4682-.6977 1.0911-.6422 1.8288.0537.7145.3567 1.5401.884 2.4835.4057.7259.9557 1.5413 1.6582 2.455-5.0188-.1919-8.9104.5181-11.9227 1.8975-3.2392 1.4833-5.4312 3.7269-6.9046 6.388-2.925 5.2828-3.0088 12.2085-2.9917 18.0525zm62.7301 28.3068v-.5h-.0354c-.2381-4.0008-3.3133-7-6.8631-7h-27.5106c-3.5498 0-6.625 2.9992-6.8631 7h-.0234v.5 13.159.5h.5 13.5795.5v-.5-2.159c0-1.3807 1.1193-2.5 2.5-2.5h7.1246c1.3807 0 2.5 1.1193 2.5 2.5v2.159.5h.5 13.5915.5v-.5z" fill="url(#u)"/><path d="m109.272 62.5h-1.272-.5v.5 34c0 9.113-7.387 16.5-16.5 16.5h-54c-9.1127 0-16.5-7.387-16.5-16.5l.0003-34.0123v-.5h-.5-1.255c-2.383-30.3962 10.2675-48.2117 26.0079-54.50521 15.8522-6.33815 34.9716-1.06274 45.4821 15.01891l.1839.2813.3299-.064c4.2275-.8203 7.4461.1321 9.9309 2.2514 2.508 2.1397 4.315 5.5094 5.601 9.6018 2.525 8.0333 2.975 18.6266 2.991 27.4281zm-87.3483-1.8068.0015.4986h.0158v27.558.5h.5 15.4285.4894l.0105-.4894c.1196-5.593 4.4003-10.2604 9.8753-10.2604h31.5106c5.475 0 9.7557 4.6674 9.8753 10.2605l.0105.4893h.4894 15.4285.5v-.5-25.7498-.5h-.002c-.086-18.0623-4.807-31.0459-13.3419-36.6572l-.4324-.2843-.2693.4419c-2.2883 3.7555-7.3039 5.016-13.5646 4.9672-6.2201-.0485-13.4379-1.3859-19.8547-2.5763l-.0099-.0018c-3.1523-.5848-6.1138-1.1342-8.6467-1.4696-2.521-.3337-4.6809-.4654-6.203-.1804-.7627.1428-1.4276.4009-1.8918.8484-.4856.4682-.6977 1.0911-.6422 1.8288.0537.7145.3567 1.5401.884 2.4835.4057.7259.9557 1.5413 1.6582 2.455-5.0188-.1919-8.9104.5181-11.9227 1.8975-3.2392 1.4833-5.4312 3.7269-6.9046 6.388-2.925 5.2828-3.0088 12.2085-2.9917 18.0525zm62.7301 28.3068v-.5h-.0354c-.2381-4.0008-3.3133-7-6.8631-7h-27.5106c-3.5498 0-6.625 2.9992-6.8631 7h-.0234v.5 13.159.5h.5 13.5795.5v-.5-2.159c0-1.3807 1.1193-2.5 2.5-2.5h7.1246c1.3807 0 2.5 1.1193 2.5 2.5v2.159.5h.5 13.5915.5v-.5z" stroke="#985f41"/><rect fill="url(#w)" height="30" rx="3" width="6" x="108.5" y="53.5"/><rect height="30" rx="3" stroke="url(#x)" width="6" x="108.5" y="53.5"/><rect fill="url(#y)" height="30" rx="3" width="6" x="13.5" y="53.5"/><rect height="30" rx="3" stroke="url(#z)" width="6" x="13.5" y="53.5"/></svg>