<svg fill="none" height="128" viewBox="0 0 128 128" width="128" xmlns="http://www.w3.org/2000/svg" xmlns:xlink="http://www.w3.org/1999/xlink"><filter id="a" color-interpolation-filters="sRGB" filterUnits="userSpaceOnUse" height="24.1815" width="25.6662" x="51.1669" y="59.0685"><feFlood flood-opacity="0" result="BackgroundImageFix"/><feColorMatrix in="SourceAlpha" result="hardAlpha" type="matrix" values="0 0 0 0 0 0 0 0 0 0 0 0 0 0 0 0 0 0 127 0"/><feOffset dy="2"/><feGaussianBlur stdDeviation="2"/><feComposite in2="hardAlpha" operator="out"/><feColorMatrix type="matrix" values="0 0 0 0 0 0 0 0 0 0 0 0 0 0 0 0 0 0 0.25 0"/><feBlend in2="BackgroundImageFix" mode="normal" result="effect1_dropShadow_5_45"/><feBlend in="SourceGraphic" in2="effect1_dropShadow_5_45" mode="normal" result="shape"/></filter><filter id="b" color-interpolation-filters="sRGB" filterUnits="userSpaceOnUse" height="16" width="41" x="44" y="81"><feFlood flood-opacity="0" result="BackgroundImageFix"/><feColorMatrix in="SourceAlpha" result="hardAlpha" type="matrix" values="0 0 0 0 0 0 0 0 0 0 0 0 0 0 0 0 0 0 127 0"/><feOffset dy="-1"/><feGaussianBlur stdDeviation=".5"/><feComposite in2="hardAlpha" operator="out"/><feColorMatrix type="matrix" values="0 0 0 0 0.933333 0 0 0 0 0.811765 0 0 0 0 0.631373 0 0 0 1 0"/><feBlend in2="BackgroundImageFix" mode="normal" result="effect1_dropShadow_5_45"/><feBlend in="SourceGraphic" in2="effect1_dropShadow_5_45" mode="normal" result="shape"/><feColorMatrix in="SourceAlpha" result="hardAlpha" type="matrix" values="0 0 0 0 0 0 0 0 0 0 0 0 0 0 0 0 0 0 127 0"/><feMorphology in="SourceAlpha" operator="erode" radius="1" result="effect2_innerShadow_5_45"/><feOffset dy="2"/><feGaussianBlur stdDeviation="2.5"/><feComposite in2="hardAlpha" k2="-1" k3="1" operator="arithmetic"/><feColorMatrix type="matrix" values="0 0 0 0 0.196078 0 0 0 0 0.129412 0 0 0 0 0.113725 0 0 0 0.99 0"/><feBlend in2="shape" mode="normal" result="effect2_innerShadow_5_45"/></filter><filter id="c" color-interpolation-filters="sRGB" filterUnits="userSpaceOnUse" height="28" width="28" x="71" y="45"><feFlood flood-opacity="0" result="BackgroundImageFix"/><feColorMatrix in="SourceAlpha" result="hardAlpha" type="matrix" values="0 0 0 0 0 0 0 0 0 0 0 0 0 0 0 0 0 0 127 0"/><feMorphology in="SourceAlpha" operator="dilate" radius="1" result="effect1_dropShadow_5_45"/><feOffset dy="1"/><feGaussianBlur stdDeviation=".5"/><feComposite in2="hardAlpha" operator="out"/><feColorMatrix type="matrix" values="0 0 0 0 0.627451 0 0 0 0 0.509804 0 0 0 0 0.45098 0 0 0 0.62 0"/><feBlend in2="BackgroundImageFix" mode="normal" result="effect1_dropShadow_5_45"/><feBlend in="SourceGraphic" in2="effect1_dropShadow_5_45" mode="normal" result="shape"/></filter><filter id="d" color-interpolation-filters="sRGB" filterUnits="userSpaceOnUse" height="16" width="16" x="77" y="50"><feFlood flood-opacity="0" result="BackgroundImageFix"/><feBlend in="SourceGraphic" in2="BackgroundImageFix" mode="normal" result="shape"/><feColorMatrix in="SourceAlpha" result="hardAlpha" type="matrix" values="0 0 0 0 0 0 0 0 0 0 0 0 0 0 0 0 0 0 127 0"/><feMorphology in="SourceAlpha" operator="erode" radius="1" result="effect1_innerShadow_5_45"/><feOffset/><feGaussianBlur stdDeviation=".5"/><feComposite in2="hardAlpha" k2="-1" k3="1" operator="arithmetic"/><feColorMatrix type="matrix" values="0 0 0 0 0.513725 0 0 0 0 0.380392 0 0 0 0 0.290196 0 0 0 0.23 0"/><feBlend in2="shape" mode="normal" result="effect1_innerShadow_5_45"/></filter><filter id="e" color-interpolation-filters="sRGB" filterUnits="userSpaceOnUse" height="28" width="28" x="29" y="45"><feFlood flood-opacity="0" result="BackgroundImageFix"/><feColorMatrix in="SourceAlpha" result="hardAlpha" type="matrix" values="0 0 0 0 0 0 0 0 0 0 0 0 0 0 0 0 0 0 127 0"/><feMorphology in="SourceAlpha" operator="dilate" radius="1" result="effect1_dropShadow_5_45"/><feOffset dy="1"/><feGaussianBlur stdDeviation=".5"/><feComposite in2="hardAlpha" operator="out"/><feColorMatrix type="matrix" values="0 0 0 0 0.627451 0 0 0 0 0.509804 0 0 0 0 0.45098 0 0 0 0.62 0"/><feBlend in2="BackgroundImageFix" mode="normal" result="effect1_dropShadow_5_45"/><feBlend in="SourceGraphic" in2="effect1_dropShadow_5_45" mode="normal" result="shape"/></filter><filter id="f" color-interpolation-filters="sRGB" filterUnits="userSpaceOnUse" height="16" width="16" x="35" y="50"><feFlood flood-opacity="0" result="BackgroundImageFix"/><feBlend in="SourceGraphic" in2="BackgroundImageFix" mode="normal" result="shape"/><feColorMatrix in="SourceAlpha" result="hardAlpha" type="matrix" values="0 0 0 0 0 0 0 0 0 0 0 0 0 0 0 0 0 0 127 0"/><feMorphology in="SourceAlpha" operator="erode" radius="1" result="effect1_innerShadow_5_45"/><feOffset/><feGaussianBlur stdDeviation=".5"/><feComposite in2="hardAlpha" k2="-1" k3="1" operator="arithmetic"/><feColorMatrix type="matrix" values="0 0 0 0 0.513725 0 0 0 0 0.380392 0 0 0 0 0.290196 0 0 0 0.23 0"/><feBlend in2="shape" mode="normal" result="effect1_innerShadow_5_45"/></filter><filter id="g" color-interpolation-filters="sRGB" filterUnits="userSpaceOnUse" height="11" width="21" x="15" y="53"><feFlood flood-opacity="0" result="BackgroundImageFix"/><feColorMatrix in="SourceAlpha" result="hardAlpha" type="matrix" values="0 0 0 0 0 0 0 0 0 0 0 0 0 0 0 0 0 0 127 0"/><feOffset dy="2"/><feGaussianBlur stdDeviation="2"/><feComposite in2="hardAlpha" operator="out"/><feColorMatrix type="matrix" values="0 0 0 0 0 0 0 0 0 0 0 0 0 0 0 0 0 0 0.25 0"/><feBlend in2="BackgroundImageFix" mode="normal" result="effect1_dropShadow_5_45"/><feBlend in="SourceGraphic" in2="effect1_dropShadow_5_45" mode="normal" result="shape"/></filter><filter id="h" color-interpolation-filters="sRGB" filterUnits="userSpaceOnUse" height="11" width="28" x="50" y="53"><feFlood flood-opacity="0" result="BackgroundImageFix"/><feColorMatrix in="SourceAlpha" result="hardAlpha" type="matrix" values="0 0 0 0 0 0 0 0 0 0 0 0 0 0 0 0 0 0 127 0"/><feOffset dy="2"/><feGaussianBlur stdDeviation="2"/><feComposite in2="hardAlpha" operator="out"/><feColorMatrix type="matrix" values="0 0 0 0 0 0 0 0 0 0 0 0 0 0 0 0 0 0 0.25 0"/><feBlend in2="BackgroundImageFix" mode="normal" result="effect1_dropShadow_5_45"/><feBlend in="SourceGraphic" in2="effect1_dropShadow_5_45" mode="normal" result="shape"/></filter><filter id="i" color-interpolation-filters="sRGB" filterUnits="userSpaceOnUse" height="11" width="21" x="92" y="53"><feFlood flood-opacity="0" result="BackgroundImageFix"/><feColorMatrix in="SourceAlpha" result="hardAlpha" type="matrix" values="0 0 0 0 0 0 0 0 0 0 0 0 0 0 0 0 0 0 127 0"/><feOffset dy="2"/><feGaussianBlur stdDeviation="2"/><feComposite in2="hardAlpha" operator="out"/><feColorMatrix type="matrix" values="0 0 0 0 0 0 0 0 0 0 0 0 0 0 0 0 0 0 0.25 0"/><feBlend in2="BackgroundImageFix" mode="normal" result="effect1_dropShadow_5_45"/><feBlend in="SourceGraphic" in2="effect1_dropShadow_5_45" mode="normal" result="shape"/></filter><linearGradient id="j"><stop offset="0" stop-color="#ffecb5"/><stop offset="1" stop-color="#fb8800"/></linearGradient><linearGradient id="k" gradientUnits="userSpaceOnUse" x1="35" x2="35" xlink:href="#j" y1="8" y2="20"/><linearGradient id="l" gradientUnits="userSpaceOnUse" x1="6" x2="6" xlink:href="#j" y1="0" y2="12"/><linearGradient id="m" gradientUnits="userSpaceOnUse" x1="64" x2="64" y1="26" y2="114"><stop offset=".369792" stop-color="#d7c3c2"/><stop offset=".822917" stop-color="#d3a085"/></linearGradient><linearGradient id="n" gradientUnits="userSpaceOnUse" x1="64" x2="64" y1="26" y2="114"><stop offset="0" stop-color="#d9c5c6"/><stop offset="1" stop-color="#815e47"/></linearGradient><radialGradient id="o" cx="0" cy="0" gradientTransform="matrix(0 11.5 -11 0 64 71.5)" gradientUnits="userSpaceOnUse" r="1"><stop offset="0" stop-color="#f4cedd"/><stop offset=".505208" stop-color="#db4655"/><stop offset=".744792" stop-color="#590000"/></radialGradient><linearGradient id="p"><stop offset=".25" stop-color="#db4655"/><stop offset=".40625" stop-color="#f4cedd"/><stop offset=".744792" stop-color="#6f2f3f"/></linearGradient><linearGradient id="q" gradientUnits="userSpaceOnUse" x1="64" x2="64" xlink:href="#p" y1="60" y2="83"/><linearGradient id="r" gradientUnits="userSpaceOnUse" x1="85" x2="85" y1="46" y2="70"><stop offset="0" stop-color="#d3a08b"/><stop offset=".499436" stop-color="#d6a191"/><stop offset=".499994" stop-color="#784b3a"/><stop offset="1" stop-color="#693e2d"/></linearGradient><linearGradient id="s"><stop offset=".494792" stop-color="#e9fefe"/><stop offset=".567708" stop-color="#e1ecf3"/></linearGradient><linearGradient id="t" gradientUnits="userSpaceOnUse" x1="85" x2="85" xlink:href="#s" y1="51" y2="65"/><linearGradient id="u" gradientUnits="userSpaceOnUse" x1="43" x2="43" y1="46" y2="70"><stop offset="0" stop-color="#d3a08b"/><stop offset=".498492" stop-color="#d6a191"/><stop offset=".500274" stop-color="#784b3a"/><stop offset="1" stop-color="#693e2d"/></linearGradient><linearGradient id="v" gradientUnits="userSpaceOnUse" x1="43" x2="43" xlink:href="#s" y1="51" y2="65"/><linearGradient id="w" gradientUnits="userSpaceOnUse" x1="32" x2="19" y1="58" y2="58"><stop offset="0" stop-color="#5a372a"/><stop offset="1" stop-color="#714534"/></linearGradient><linearGradient id="x" gradientUnits="userSpaceOnUse" x1="54" x2="74" y1="58" y2="58"><stop offset="0" stop-color="#5b382a"/><stop offset=".495267" stop-color="#6c4130"/><stop offset="1" stop-color="#5b382a"/></linearGradient><linearGradient id="y" gradientUnits="userSpaceOnUse" x1="96" x2="109" y1="58" y2="58"><stop offset="0" stop-color="#5a3729"/><stop offset="1" stop-color="#714534"/></linearGradient><linearGradient id="z"><stop offset=".25" stop-color="#db4655"/><stop offset=".40625" stop-color="#f4cedd"/><stop offset=".744792" stop-color="#590000"/></linearGradient><linearGradient id="A" gradientUnits="userSpaceOnUse" x1="16.5" x2="16.5" xlink:href="#z" y1="53" y2="84"/><linearGradient id="B" gradientUnits="userSpaceOnUse" x1="16.5" x2="16.5" xlink:href="#p" y1="53" y2="84"/><linearGradient id="C" gradientUnits="userSpaceOnUse" x1="111.5" x2="111.5" xlink:href="#z" y1="53" y2="84"/><linearGradient id="D" gradientUnits="userSpaceOnUse" x1="111.5" x2="111.5" xlink:href="#p" y1="53" y2="84"/><radialGradient id="E" cx="0" cy="0" gradientTransform="matrix(0 7.5 -21.5 0 64 13)" gradientUnits="userSpaceOnUse" r="1"><stop offset="0" stop-opacity=".25"/><stop offset="1" stop-opacity="0"/></radialGradient><path d="m35 16.5918h2v13h-2z" fill="#9274b1" transform="matrix(.95521538 -.29591145 .29591145 .95521538 -3.342242 11.099958)"/><circle cx="35" cy="14" fill="url(#k)" r="5.5" stroke="#fa7c07"/><path d="m0 0h2v13h-2z" fill="#9274b1" transform="matrix(-.955215 -.295912 -.295912 .955215 93 16.5918)"/><circle cx="6" cy="6" fill="url(#l)" r="5.5" stroke="#fa7c07" transform="matrix(-1 0 0 1 99 8)"/><rect fill="url(#m)" height="83" rx="14.5" stroke="url(#n)" stroke-width="5" width="83" x="22.5" y="28.5"/><g filter="url(#a)"><path d="m63.1246 61.5851c.3804-.6887 1.3704-.6887 1.7508 0l7.8317 14.1815c.368.6665-.1141 1.4834-.8754 1.4834h-15.6634c-.7613 0-1.2434-.8169-.8754-1.4834z" fill="url(#o)"/><path d="m63.5623 61.8268c.1902-.3443.6852-.3443.8754 0l7.8317 14.1815c.184.3332-.057.7417-.4377.7417h-15.6634c-.3807 0-.6217-.4085-.4377-.7417z" stroke="url(#q)"/></g><g filter="url(#b)"><rect fill="#fff" height="12" rx="6" width="39" x="45" y="83"/><rect height="10" rx="5" stroke="#32211d" stroke-width="2" width="37" x="46" y="84"/></g><g filter="url(#c)"><circle cx="85" cy="58" fill="#fff" r="12" transform="matrix(-1 0 0 -1 170 116)"/><circle cx="85" cy="58" r="10" stroke="url(#r)" stroke-width="4" transform="matrix(-1 0 0 -1 170 116)"/></g><g filter="url(#d)"><ellipse cx="85" cy="58" fill="url(#t)" rx="7" ry="7" transform="matrix(-1 0 0 -1 170 116)"/></g><path d="m85 50.5c-4.1421 0-7.5 3.3579-7.5 7.5s3.3579 7.5 7.5 7.5 7.5-3.3579 7.5-7.5-3.3579-7.5-7.5-7.5z" stroke="#000" stroke-opacity=".2"/><g filter="url(#e)"><circle cx="43" cy="58" fill="#fff" r="12" transform="matrix(-1 0 0 -1 86 116)"/><circle cx="43" cy="58" r="10" stroke="url(#u)" stroke-width="4" transform="matrix(-1 0 0 -1 86 116)"/></g><g filter="url(#f)"><ellipse cx="43" cy="58" fill="url(#v)" rx="7" ry="7" transform="matrix(-1 0 0 -1 86 116)"/></g><path d="m43 50.5c-4.1421 0-7.5 3.3579-7.5 7.5s3.3579 7.5 7.5 7.5 7.5-3.3579 7.5-7.5-3.3579-7.5-7.5-7.5z" stroke="#000" stroke-opacity=".2"/><g fill="#32211d"><path d="m63 85h2v8h-2z"/><path d="m52 85h2v8h-2z"/><path d="m74 85h2v8h-2z"/></g><circle cx="85" cy="58" r="11.5" stroke="#000" stroke-opacity=".2" transform="matrix(-1 0 0 -1 170 116)"/><circle cx="43" cy="58" r="11.5" stroke="#000" stroke-opacity=".2" transform="matrix(-1 0 0 -1 86 116)"/><g filter="url(#g)"><path d="m19 55h13v3h-13z" fill="url(#w)"/></g><g filter="url(#h)"><path d="m54 55h20v3h-20z" fill="url(#x)"/></g><g filter="url(#i)"><path d="m96 55h13v3h-13z" fill="url(#y)"/></g><rect fill="url(#A)" height="30" rx="3" width="6" x="13.5" y="53.5"/><rect height="30" rx="3" stroke="url(#B)" width="6" x="13.5" y="53.5"/><rect fill="url(#C)" height="30" rx="3" width="6" x="108.5" y="53.5"/><rect height="30" rx="3" stroke="url(#D)" width="6" x="108.5" y="53.5"/><path d="m59.7711 10.0799-.1637-.10561-.1919.03291-13.7158 2.3513 13.7396-6.28097 15.2628 11.32397.1761.1307.2154-.041 7.1861-1.3688-7.2535 3.7995z" fill="#b3e2fc" stroke="url(#E)"/></svg>