<svg fill="none" height="128" viewBox="0 0 128 128" width="128" xmlns="http://www.w3.org/2000/svg" xmlns:xlink="http://www.w3.org/1999/xlink"><filter id="a" color-interpolation-filters="sRGB" filterUnits="userSpaceOnUse" height="24.1815" width="25.6662" x="51.1669" y="59.0685"><feFlood flood-opacity="0" result="BackgroundImageFix"/><feColorMatrix in="SourceAlpha" result="hardAlpha" type="matrix" values="0 0 0 0 0 0 0 0 0 0 0 0 0 0 0 0 0 0 127 0"/><feOffset dy="2"/><feGaussianBlur stdDeviation="2"/><feComposite in2="hardAlpha" operator="out"/><feColorMatrix type="matrix" values="0 0 0 0 0 0 0 0 0 0 0 0 0 0 0 0 0 0 0.25 0"/><feBlend in2="BackgroundImageFix" mode="normal" result="effect1_dropShadow_202_33"/><feBlend in="SourceGraphic" in2="effect1_dropShadow_202_33" mode="normal" result="shape"/></filter><filter id="b" color-interpolation-filters="sRGB" filterUnits="userSpaceOnUse" height="16" width="41" x="44" y="81"><feFlood flood-opacity="0" result="BackgroundImageFix"/><feColorMatrix in="SourceAlpha" result="hardAlpha" type="matrix" values="0 0 0 0 0 0 0 0 0 0 0 0 0 0 0 0 0 0 127 0"/><feOffset dy="-1"/><feGaussianBlur stdDeviation=".5"/><feComposite in2="hardAlpha" operator="out"/><feColorMatrix type="matrix" values="0 0 0 0 0.933333 0 0 0 0 0.811765 0 0 0 0 0.631373 0 0 0 1 0"/><feBlend in2="BackgroundImageFix" mode="normal" result="effect1_dropShadow_202_33"/><feBlend in="SourceGraphic" in2="effect1_dropShadow_202_33" mode="normal" result="shape"/><feColorMatrix in="SourceAlpha" result="hardAlpha" type="matrix" values="0 0 0 0 0 0 0 0 0 0 0 0 0 0 0 0 0 0 127 0"/><feMorphology in="SourceAlpha" operator="erode" radius="1" result="effect2_innerShadow_202_33"/><feOffset dy="2"/><feGaussianBlur stdDeviation="2.5"/><feComposite in2="hardAlpha" k2="-1" k3="1" operator="arithmetic"/><feColorMatrix type="matrix" values="0 0 0 0 0.196078 0 0 0 0 0.129412 0 0 0 0 0.113725 0 0 0 0.99 0"/><feBlend in2="shape" mode="normal" result="effect2_innerShadow_202_33"/></filter><filter id="c" color-interpolation-filters="sRGB" filterUnits="userSpaceOnUse" height="28" width="28" x="29" y="45"><feFlood flood-opacity="0" result="BackgroundImageFix"/><feColorMatrix in="SourceAlpha" result="hardAlpha" type="matrix" values="0 0 0 0 0 0 0 0 0 0 0 0 0 0 0 0 0 0 127 0"/><feMorphology in="SourceAlpha" operator="dilate" radius="1" result="effect1_dropShadow_202_33"/><feOffset dy="1"/><feGaussianBlur stdDeviation=".5"/><feComposite in2="hardAlpha" operator="out"/><feColorMatrix type="matrix" values="0 0 0 0 0.957778 0 0 0 0 0.884416 0 0 0 0 0.775556 0 0 0 0.6 0"/><feBlend in2="BackgroundImageFix" mode="normal" result="effect1_dropShadow_202_33"/><feBlend in="SourceGraphic" in2="effect1_dropShadow_202_33" mode="normal" result="shape"/></filter><filter id="d" color-interpolation-filters="sRGB" filterUnits="userSpaceOnUse" height="16" width="16" x="35" y="50"><feFlood flood-opacity="0" result="BackgroundImageFix"/><feBlend in="SourceGraphic" in2="BackgroundImageFix" mode="normal" result="shape"/><feColorMatrix in="SourceAlpha" result="hardAlpha" type="matrix" values="0 0 0 0 0 0 0 0 0 0 0 0 0 0 0 0 0 0 127 0"/><feMorphology in="SourceAlpha" operator="erode" radius="1" result="effect1_innerShadow_202_33"/><feOffset/><feGaussianBlur stdDeviation=".5"/><feComposite in2="hardAlpha" k2="-1" k3="1" operator="arithmetic"/><feColorMatrix type="matrix" values="0 0 0 0 0.513725 0 0 0 0 0.380392 0 0 0 0 0.290196 0 0 0 0.23 0"/><feBlend in2="shape" mode="normal" result="effect1_innerShadow_202_33"/></filter><filter id="e" color-interpolation-filters="sRGB" filterUnits="userSpaceOnUse" height="24" width="24" x="31" y="46"><feFlood flood-opacity="0" result="BackgroundImageFix"/><feBlend in="SourceGraphic" in2="BackgroundImageFix" mode="normal" result="shape"/><feColorMatrix in="SourceAlpha" result="hardAlpha" type="matrix" values="0 0 0 0 0 0 0 0 0 0 0 0 0 0 0 0 0 0 127 0"/><feMorphology in="SourceAlpha" operator="erode" radius="1" result="effect1_innerShadow_202_33"/><feOffset/><feGaussianBlur stdDeviation=".5"/><feComposite in2="hardAlpha" k2="-1" k3="1" operator="arithmetic"/><feColorMatrix type="matrix" values="0 0 0 0 0.513725 0 0 0 0 0.380392 0 0 0 0 0.290196 0 0 0 0.23 0"/><feBlend in2="shape" mode="normal" result="effect1_innerShadow_202_33"/></filter><filter id="f" color-interpolation-filters="sRGB" filterUnits="userSpaceOnUse" height="28" width="28" x="71" y="45"><feFlood flood-opacity="0" result="BackgroundImageFix"/><feColorMatrix in="SourceAlpha" result="hardAlpha" type="matrix" values="0 0 0 0 0 0 0 0 0 0 0 0 0 0 0 0 0 0 127 0"/><feMorphology in="SourceAlpha" operator="dilate" radius="1" result="effect1_dropShadow_202_33"/><feOffset dy="1"/><feGaussianBlur stdDeviation=".5"/><feComposite in2="hardAlpha" operator="out"/><feColorMatrix type="matrix" values="0 0 0 0 0.957778 0 0 0 0 0.884416 0 0 0 0 0.775556 0 0 0 0.6 0"/><feBlend in2="BackgroundImageFix" mode="normal" result="effect1_dropShadow_202_33"/><feBlend in="SourceGraphic" in2="effect1_dropShadow_202_33" mode="normal" result="shape"/></filter><filter id="g" color-interpolation-filters="sRGB" filterUnits="userSpaceOnUse" height="16" width="16" x="77" y="50"><feFlood flood-opacity="0" result="BackgroundImageFix"/><feBlend in="SourceGraphic" in2="BackgroundImageFix" mode="normal" result="shape"/><feColorMatrix in="SourceAlpha" result="hardAlpha" type="matrix" values="0 0 0 0 0 0 0 0 0 0 0 0 0 0 0 0 0 0 127 0"/><feMorphology in="SourceAlpha" operator="erode" radius="1" result="effect1_innerShadow_202_33"/><feOffset/><feGaussianBlur stdDeviation=".5"/><feComposite in2="hardAlpha" k2="-1" k3="1" operator="arithmetic"/><feColorMatrix type="matrix" values="0 0 0 0 0.513725 0 0 0 0 0.380392 0 0 0 0 0.290196 0 0 0 0.23 0"/><feBlend in2="shape" mode="normal" result="effect1_innerShadow_202_33"/></filter><filter id="h" color-interpolation-filters="sRGB" filterUnits="userSpaceOnUse" height="24" width="24" x="73" y="46"><feFlood flood-opacity="0" result="BackgroundImageFix"/><feBlend in="SourceGraphic" in2="BackgroundImageFix" mode="normal" result="shape"/><feColorMatrix in="SourceAlpha" result="hardAlpha" type="matrix" values="0 0 0 0 0 0 0 0 0 0 0 0 0 0 0 0 0 0 127 0"/><feMorphology in="SourceAlpha" operator="erode" radius="1" result="effect1_innerShadow_202_33"/><feOffset/><feGaussianBlur stdDeviation=".5"/><feComposite in2="hardAlpha" k2="-1" k3="1" operator="arithmetic"/><feColorMatrix type="matrix" values="0 0 0 0 0.513725 0 0 0 0 0.380392 0 0 0 0 0.290196 0 0 0 0.23 0"/><feBlend in2="shape" mode="normal" result="effect1_innerShadow_202_33"/></filter><filter id="i" color-interpolation-filters="sRGB" filterUnits="userSpaceOnUse" height="26.7388" width="65.4332" x="15.8276" y="13.0061"><feFlood flood-opacity="0" result="BackgroundImageFix"/><feBlend in="SourceGraphic" in2="BackgroundImageFix" mode="normal" result="shape"/><feGaussianBlur result="effect1_foregroundBlur_202_33" stdDeviation="2"/></filter><filter id="j" color-interpolation-filters="sRGB" filterUnits="userSpaceOnUse" height="20.4736" width="16.3093" x="23.9885" y="-.208618"><feFlood flood-opacity="0" result="BackgroundImageFix"/><feBlend in="SourceGraphic" in2="BackgroundImageFix" mode="normal" result="shape"/><feColorMatrix in="SourceAlpha" result="hardAlpha" type="matrix" values="0 0 0 0 0 0 0 0 0 0 0 0 0 0 0 0 0 0 127 0"/><feOffset dy="-1"/><feGaussianBlur stdDeviation=".5"/><feComposite in2="hardAlpha" k2="-1" k3="1" operator="arithmetic"/><feColorMatrix type="matrix" values="0 0 0 0 0 0 0 0 0 0 0 0 0 0 0 0 0 0 0.25 0"/><feBlend in2="shape" mode="normal" result="effect1_innerShadow_202_33"/><feColorMatrix in="SourceAlpha" result="hardAlpha" type="matrix" values="0 0 0 0 0 0 0 0 0 0 0 0 0 0 0 0 0 0 127 0"/><feOffset dy="2"/><feGaussianBlur stdDeviation=".5"/><feComposite in2="hardAlpha" k2="-1" k3="1" operator="arithmetic"/><feColorMatrix type="matrix" values="0 0 0 0 1 0 0 0 0 1 0 0 0 0 1 0 0 0 0.25 0"/><feBlend in2="effect1_innerShadow_202_33" mode="normal" result="effect2_innerShadow_202_33"/></filter><filter id="k" color-interpolation-filters="sRGB" filterUnits="userSpaceOnUse" height="20.4736" width="16.3093" x="50.0333" y="-5.94147"><feFlood flood-opacity="0" result="BackgroundImageFix"/><feBlend in="SourceGraphic" in2="BackgroundImageFix" mode="normal" result="shape"/><feColorMatrix in="SourceAlpha" result="hardAlpha" type="matrix" values="0 0 0 0 0 0 0 0 0 0 0 0 0 0 0 0 0 0 127 0"/><feOffset dy="-1"/><feGaussianBlur stdDeviation=".5"/><feComposite in2="hardAlpha" k2="-1" k3="1" operator="arithmetic"/><feColorMatrix type="matrix" values="0 0 0 0 0 0 0 0 0 0 0 0 0 0 0 0 0 0 0.25 0"/><feBlend in2="shape" mode="normal" result="effect1_innerShadow_202_33"/><feColorMatrix in="SourceAlpha" result="hardAlpha" type="matrix" values="0 0 0 0 0 0 0 0 0 0 0 0 0 0 0 0 0 0 127 0"/><feOffset dy="2"/><feGaussianBlur stdDeviation=".5"/><feComposite in2="hardAlpha" k2="-1" k3="1" operator="arithmetic"/><feColorMatrix type="matrix" values="0 0 0 0 1 0 0 0 0 1 0 0 0 0 1 0 0 0 0.25 0"/><feBlend in2="effect1_innerShadow_202_33" mode="normal" result="effect2_innerShadow_202_33"/></filter><filter id="l" color-interpolation-filters="sRGB" filterUnits="userSpaceOnUse" height="41.7227" width="60.2364" x="13.0571" y="-11.1322"><feFlood flood-opacity="0" result="BackgroundImageFix"/><feBlend in="SourceGraphic" in2="BackgroundImageFix" mode="normal" result="shape"/><feColorMatrix in="SourceAlpha" result="hardAlpha" type="matrix" values="0 0 0 0 0 0 0 0 0 0 0 0 0 0 0 0 0 0 127 0"/><feOffset dy="-1"/><feGaussianBlur stdDeviation=".5"/><feComposite in2="hardAlpha" k2="-1" k3="1" operator="arithmetic"/><feColorMatrix type="matrix" values="0 0 0 0 0 0 0 0 0 0 0 0 0 0 0 0 0 0 0.25 0"/><feBlend in2="shape" mode="normal" result="effect1_innerShadow_202_33"/><feColorMatrix in="SourceAlpha" result="hardAlpha" type="matrix" values="0 0 0 0 0 0 0 0 0 0 0 0 0 0 0 0 0 0 127 0"/><feOffset dy="2"/><feGaussianBlur stdDeviation=".5"/><feComposite in2="hardAlpha" k2="-1" k3="1" operator="arithmetic"/><feColorMatrix type="matrix" values="0 0 0 0 1 0 0 0 0 1 0 0 0 0 1 0 0 0 0.25 0"/><feBlend in2="effect1_innerShadow_202_33" mode="normal" result="effect2_innerShadow_202_33"/></filter><filter id="m" color-interpolation-filters="sRGB" filterUnits="userSpaceOnUse" height="18.1453" width="55.5454" x="19.859" y="15.1674"><feFlood flood-opacity="0" result="BackgroundImageFix"/><feBlend in="SourceGraphic" in2="BackgroundImageFix" mode="normal" result="shape"/><feColorMatrix in="SourceAlpha" result="hardAlpha" type="matrix" values="0 0 0 0 0 0 0 0 0 0 0 0 0 0 0 0 0 0 127 0"/><feOffset dy="-1"/><feGaussianBlur stdDeviation=".5"/><feComposite in2="hardAlpha" k2="-1" k3="1" operator="arithmetic"/><feColorMatrix type="matrix" values="0 0 0 0 0 0 0 0 0 0 0 0 0 0 0 0 0 0 0.25 0"/><feBlend in2="shape" mode="normal" result="effect1_innerShadow_202_33"/><feColorMatrix in="SourceAlpha" result="hardAlpha" type="matrix" values="0 0 0 0 0 0 0 0 0 0 0 0 0 0 0 0 0 0 127 0"/><feOffset dy="2"/><feGaussianBlur stdDeviation=".5"/><feComposite in2="hardAlpha" k2="-1" k3="1" operator="arithmetic"/><feColorMatrix type="matrix" values="0 0 0 0 1 0 0 0 0 1 0 0 0 0 1 0 0 0 0.25 0"/><feBlend in2="effect1_innerShadow_202_33" mode="normal" result="effect2_innerShadow_202_33"/></filter><filter id="n" color-interpolation-filters="sRGB" filterUnits="userSpaceOnUse" height="13.9159" width="13.9159" x="38.9513" y="9.95874"><feFlood flood-opacity="0" result="BackgroundImageFix"/><feColorMatrix in="SourceAlpha" result="hardAlpha" type="matrix" values="0 0 0 0 0 0 0 0 0 0 0 0 0 0 0 0 0 0 127 0"/><feOffset dy=".5"/><feGaussianBlur stdDeviation=".5"/><feComposite in2="hardAlpha" operator="out"/><feColorMatrix type="matrix" values="0 0 0 0 0 0 0 0 0 0 0 0 0 0 0 0 0 0 0.25 0"/><feBlend in2="BackgroundImageFix" mode="normal" result="effect1_dropShadow_202_33"/><feBlend in="SourceGraphic" in2="effect1_dropShadow_202_33" mode="normal" result="shape"/></filter><filter id="o" color-interpolation-filters="sRGB" filterUnits="userSpaceOnUse" height="13.3207" width="13.2731" x="64.9882" y="2.77496"><feFlood flood-opacity="0" result="BackgroundImageFix"/><feColorMatrix in="SourceAlpha" result="hardAlpha" type="matrix" values="0 0 0 0 0 0 0 0 0 0 0 0 0 0 0 0 0 0 127 0"/><feOffset dy=".5"/><feGaussianBlur stdDeviation=".5"/><feComposite in2="hardAlpha" operator="out"/><feColorMatrix type="matrix" values="0 0 0 0 0 0 0 0 0 0 0 0 0 0 0 0 0 0 0.25 0"/><feBlend in2="BackgroundImageFix" mode="normal" result="effect1_dropShadow_202_33"/><feBlend in="SourceGraphic" in2="effect1_dropShadow_202_33" mode="normal" result="shape"/></filter><filter id="p" color-interpolation-filters="sRGB" filterUnits="userSpaceOnUse" height="13.2773" width="13.2942" x="13.097" y="13.7386"><feFlood flood-opacity="0" result="BackgroundImageFix"/><feColorMatrix in="SourceAlpha" result="hardAlpha" type="matrix" values="0 0 0 0 0 0 0 0 0 0 0 0 0 0 0 0 0 0 127 0"/><feOffset dy=".5"/><feGaussianBlur stdDeviation=".5"/><feComposite in2="hardAlpha" operator="out"/><feColorMatrix type="matrix" values="0 0 0 0 0 0 0 0 0 0 0 0 0 0 0 0 0 0 0.25 0"/><feBlend in2="BackgroundImageFix" mode="normal" result="effect1_dropShadow_202_33"/><feBlend in="SourceGraphic" in2="effect1_dropShadow_202_33" mode="normal" result="shape"/></filter><filter id="q" color-interpolation-filters="sRGB" filterUnits="userSpaceOnUse" height="9.14954" width="9.14954" x="28.5271" y="16.1849"><feFlood flood-opacity="0" result="BackgroundImageFix"/><feColorMatrix in="SourceAlpha" result="hardAlpha" type="matrix" values="0 0 0 0 0 0 0 0 0 0 0 0 0 0 0 0 0 0 127 0"/><feOffset dy=".5"/><feGaussianBlur stdDeviation=".5"/><feComposite in2="hardAlpha" operator="out"/><feColorMatrix type="matrix" values="0 0 0 0 0 0 0 0 0 0 0 0 0 0 0 0 0 0 0.25 0"/><feBlend in2="BackgroundImageFix" mode="normal" result="effect1_dropShadow_202_33"/><feBlend in="SourceGraphic" in2="effect1_dropShadow_202_33" mode="normal" result="shape"/></filter><filter id="r" color-interpolation-filters="sRGB" filterUnits="userSpaceOnUse" height="9.14954" width="9.14954" x="54.5717" y="10.4521"><feFlood flood-opacity="0" result="BackgroundImageFix"/><feColorMatrix in="SourceAlpha" result="hardAlpha" type="matrix" values="0 0 0 0 0 0 0 0 0 0 0 0 0 0 0 0 0 0 127 0"/><feOffset dy=".5"/><feGaussianBlur stdDeviation=".5"/><feComposite in2="hardAlpha" operator="out"/><feColorMatrix type="matrix" values="0 0 0 0 0 0 0 0 0 0 0 0 0 0 0 0 0 0 0.25 0"/><feBlend in2="BackgroundImageFix" mode="normal" result="effect1_dropShadow_202_33"/><feBlend in="SourceGraphic" in2="effect1_dropShadow_202_33" mode="normal" result="shape"/></filter><linearGradient id="s" gradientUnits="userSpaceOnUse" x1="64" x2="64" y1="26" y2="114"><stop offset=".369792" stop-color="#d7c3c2"/><stop offset=".822917" stop-color="#d3a085"/></linearGradient><linearGradient id="t" gradientUnits="userSpaceOnUse" x1="64" x2="64" y1="26" y2="114"><stop offset="0" stop-color="#d9c5c6"/><stop offset="1" stop-color="#815e47"/></linearGradient><radialGradient id="u" cx="0" cy="0" gradientTransform="matrix(0 11.5 -11 0 64 71.5)" gradientUnits="userSpaceOnUse" r="1"><stop offset="0" stop-color="#f4cedd"/><stop offset=".505208" stop-color="#db4655"/><stop offset=".744792" stop-color="#590000"/></radialGradient><linearGradient id="v"><stop offset=".25" stop-color="#db4655"/><stop offset=".40625" stop-color="#f4cedd"/><stop offset=".744792" stop-color="#6f2f3f"/></linearGradient><linearGradient id="w" gradientUnits="userSpaceOnUse" x1="64" x2="64" xlink:href="#v" y1="60" y2="83"/><linearGradient id="x"><stop offset=".25" stop-color="#db4655"/><stop offset=".40625" stop-color="#f4cedd"/><stop offset=".744792" stop-color="#590000"/></linearGradient><linearGradient id="y" gradientUnits="userSpaceOnUse" x1="111.5" x2="111.5" xlink:href="#x" y1="53" y2="84"/><linearGradient id="z" gradientUnits="userSpaceOnUse" x1="111.5" x2="111.5" xlink:href="#v" y1="53" y2="84"/><linearGradient id="A"><stop offset="0" stop-color="#fdc1ac"/><stop offset=".495379" stop-color="#e9af9b"/><stop offset=".500363" stop-color="#784b3a"/><stop offset="1" stop-color="#693e2d"/></linearGradient><linearGradient id="B" gradientUnits="userSpaceOnUse" x1="43" x2="43" xlink:href="#A" y1="46" y2="70"/><linearGradient id="C"><stop offset=".494792" stop-color="#e9fefe"/><stop offset=".567708" stop-color="#e1ecf3"/></linearGradient><linearGradient id="D" gradientUnits="userSpaceOnUse" x1="43" x2="43" xlink:href="#C" y1="51" y2="65"/><linearGradient id="E" gradientUnits="userSpaceOnUse" x1="85" x2="85" xlink:href="#A" y1="46" y2="70"/><linearGradient id="F" gradientUnits="userSpaceOnUse" x1="85" x2="85" xlink:href="#C" y1="51" y2="65"/><linearGradient id="G"><stop offset=".363148" stop-color="#606166"/><stop offset=".492248" stop-color="#292a33"/></linearGradient><radialGradient id="H" cx="0" cy="0" gradientTransform="matrix(46.30161821 7.47861045 -8.10752444 50.19535431 59.2751 25.7351)" gradientUnits="userSpaceOnUse" r="1" xlink:href="#G"/><radialGradient id="I" cx="0" cy="0" gradientTransform="matrix(-35.00002493 17.49997339 -13.22113079 -26.44232063 50 26.5)" gradientUnits="userSpaceOnUse" r="1" xlink:href="#G"/><linearGradient id="J" gradientUnits="userSpaceOnUse" x1="16.5" x2="16.5" xlink:href="#x" y1="53" y2="84"/><linearGradient id="K" gradientUnits="userSpaceOnUse" x1="16.5" x2="16.5" xlink:href="#v" y1="53" y2="84"/><linearGradient id="L"><stop offset="0" stop-color="#c99a11"/><stop offset=".495049" stop-color="#f9d745"/><stop offset="1" stop-color="#ca9b12"/></linearGradient><linearGradient id="M" gradientUnits="userSpaceOnUse" x1="21.7274" x2="74.0997" xlink:href="#L" y1="29.9422" y2="18.4143"/><linearGradient id="N" gradientUnits="userSpaceOnUse" x1="23.6619" x2="73.9637" xlink:href="#L" y1="33.8533" y2="22.7811"/><clipPath id="O"><path d="m0 0h128v128h-128z"/></clipPath><mask id="P" height="44" maskUnits="userSpaceOnUse" width="63" x="13" y="-11"><path clip-rule="evenodd" d="m19.6539 7.83409c-.8226-.77464-.7453-2.12059-.6334-3.24494.0306-.30702.0139-.62403-.0561-.94172-.3558-1.61637-1.9545-2.63827-3.5709-2.28248-1.6163.35578-2.6382 1.95453-2.2824 3.57089.2019.91729.8041 1.64312 1.5826 2.03436.9595.48214 2.0523 1.10048 2.2831 2.14915l1.9529 8.87195-.0001.0001 2.1275 9.6655c-.7607.4455-1.2552 1.2992-1.2123 2.2604.0615 1.3784 1.2049 2.4558 2.5538 2.4065 7.5528-.2761 28.155-2.9273 51.3765-11.2895 1.2695-.4571 1.9256-1.8826 1.4656-3.1839-.3356-.9494-1.1727-1.5704-2.0939-1.6593l-2.1275-9.66539v-.00003l-.0001-.00004-1.9528-8.87197c-.2308-1.04867.5013-2.06872 1.1697-2.90915.5423-.68198.7841-1.59359.5822-2.51087-.3558-1.61637-1.9546-2.63825-3.5709-2.28245-1.6164.35575-2.6383 1.95449-2.2825 3.57086.0699.31769.1878.61241.3445.87823.5737.97343 1.2089 2.16255.7877 3.21099l-2.9575 7.36025-4.3426-4.089623c-.7404-.697284-.739-1.875681-.7377-2.920087v-.00064c.0001-.08892.0002-.17686-.0001-.26345-.0008-.18412-.021-.37096-.0621-.55807-.3128-1.42075-1.718-2.31899-3.1388-2.00626s-2.319 1.718-2.0063 3.13875c.0412.18711.1014.36516.178.53257.0361.07893.0732.15889.1108.239745.4396.9473428.9357 2.016225.5565 2.959955l-2.224 5.53505-5.8721-5.53007c-.8036-.75679-.7482-2.0596379-.6508-3.15919.0264-.29702.0084-.60303-.0591-.90967-.3557-1.61637-1.9545-2.63827-3.5708-2.28248-1.6164.35578-2.6383 1.95453-2.2825 3.570891.0675.306646.1797.591898.3283.850405.5501.957014 1.1475 2.116164.7359 3.140444l-3.0074 7.4846-4.3426-4.08965c-.7404-.69729-.7389-1.8757-.7377-2.92011v-.00063c.0001-.08891.0002-.17686-.0001-.26345-.0008-.18411-.0209-.37095-.0621-.55806-.3128-1.42075-1.718-2.318988-3.1388-2.006258-1.4207.312728-2.319 1.717998-2.0062 3.138748.0411.18711.1013.36516.1779.53257.0361.0789.0732.15883.1107.23965l.0001.00009c.4397.94734.9358 2.01622.5566 2.95995l-2.2241 5.53505z" fill="#000" fill-rule="evenodd"/></mask><g clip-path="url(#O)"><path d="m23.7469 29.6613c9.0189-5.391 8.7357-1.7862 30.2531 3.6633-6.5109 25.8734-28.8314 83.7664-22.1284 102.6754-21.3167-14.866-25.8716-45.4461-25.8716-66.0455 0-18.4758 7.3221-34.0619 17.7469-40.2932z" fill="#292a33" stroke="#000"/><rect fill="url(#s)" height="83" rx="14.5" stroke="url(#t)" stroke-width="5" width="83" x="22.5" y="28.5"/><g filter="url(#a)"><path d="m63.1246 61.5851c.3804-.6887 1.3704-.6887 1.7508 0l7.8317 14.1815c.368.6665-.1141 1.4834-.8754 1.4834h-15.6634c-.7613 0-1.2434-.8169-.8754-1.4834z" fill="url(#u)"/><path d="m63.5623 61.8268c.1902-.3443.6852-.3443.8754 0l7.8317 14.1815c.184.3332-.057.7417-.4377.7417h-15.6634c-.3807 0-.6217-.4085-.4377-.7417z" stroke="url(#w)"/></g><g filter="url(#b)"><rect fill="#fff" height="12" rx="6" width="39" x="45" y="83"/><rect height="10" rx="5" stroke="#943b33" stroke-width="2" width="37" x="46" y="84"/></g><g fill="#943b33"><path d="m63 85h2v8h-2z"/><path d="m52 85h2v8h-2z"/><path d="m74 85h2v8h-2z"/></g><rect fill="url(#y)" height="30" rx="3" width="6" x="108.5" y="53.5"/><rect height="30" rx="3" stroke="url(#z)" width="6" x="108.5" y="53.5"/><g filter="url(#c)"><circle cx="43" cy="58" fill="#fff" r="12"/><circle cx="43" cy="58" r="10" stroke="url(#B)" stroke-width="4"/></g><g filter="url(#d)"><circle cx="43" cy="58" fill="url(#D)" r="7"/></g><circle cx="43" cy="58" r="7.5" stroke="#000" stroke-opacity=".2"/><g filter="url(#e)"><circle cx="43" cy="58" r="11.5" stroke="#000" stroke-opacity=".2"/></g><g filter="url(#f)"><circle cx="85" cy="58" fill="#fff" r="12"/><circle cx="85" cy="58" r="10" stroke="url(#E)" stroke-width="4"/></g><g filter="url(#g)"><circle cx="85" cy="58" fill="url(#F)" r="7"/></g><circle cx="85" cy="58" r="7.5" stroke="#000" stroke-opacity=".2"/><g filter="url(#h)"><circle cx="85" cy="58" r="11.5" stroke="#000" stroke-opacity=".2"/></g><path d="m63.2581 35.5148c-5.2215-6.0333-12.2581-8.306-12.2581-8.306s42.2318-34.19194 65.003 16.8604c10.581 23.7228 5.389 82.8988-25.5391 91.9308 16.6081-28.249 16.0911-91.7587-2.3125-102.7863-7.2947-4.3709-19.4854-3.9477-24.8933 2.3011z" fill="url(#H)" stroke="#000"/><path d="m47.5046 24.2139c4.5139 1.5046 8.2099 4.2895 11.9954 7.7861-18.9205-2.8993-40.2732 14.3719-40.0494 24.1931 0 0-.7719-7.7705-1.5427-11.3011 0 0-2.0543-8.219.891-11.2708 9.926-10.2846 24.1918-10.912 28.7057-9.4073z" fill="url(#I)" stroke="#000"/><path d="m16.4937 36.9326c1.5238-2.2564 4.6691-5.939 5.5063-4.6278l-2.7052 22.5725-.3156.1227c-3.078-5.6755-3.5191-16.5368-2.4855-18.0674z" fill="#292a33"/><rect fill="url(#J)" height="30" rx="3" width="6" x="13.5" y="53.5"/><rect height="30" rx="3" stroke="url(#K)" width="6" x="13.5" y="53.5"/><g filter="url(#i)" opacity=".4"><path d="m20.3889 35.3625c-1.676-1.4172.798-3.8709 2.2445-4.9207 15.5625-4.0842 47.1961-12.4493 49.2311-13.2366 2.5439-.9842 5.5865 1.8698 5.387 4.4286-.1995 2.5587-12.9686 5.8556-23.593 8.2667-10.6243 2.4112-31.1747 7.2334-33.2696 5.462z" fill="#000"/></g><g mask="url(#P)"><g filter="url(#j)"><path clip-rule="evenodd" d="m32.769 6.60203c-.8036-.75679-.7334-2.08032-.7379-3.18418-.0007-.18411-.0209-.37095-.0621-.55806-.3127-1.42076-1.718-2.318991-3.1387-2.006262-1.4208.312732-2.319 1.717992-2.0063 3.138752.0412.18711.1013.36515.178.53257.4594 1.00372 1.0789 2.17542.6673 3.19969l-3.533 8.79276c-.5992 1.4912.7161 3.0444 2.2857 2.6989l6.1521-1.3542 6.1521-1.3541c1.5695-.3455 2.1112-2.3074.9412-3.4093z" fill="#af7a22" fill-rule="evenodd"/></g><g filter="url(#k)"><path clip-rule="evenodd" d="m58.8138.869182c-.8036-.756795-.7334-2.080322-.7379-3.184182-.0007-.18411-.0209-.37095-.0621-.55806-.3127-1.42076-1.718-2.31899-3.1387-2.00626-1.4208.31273-2.319 1.71799-2.0063 3.13875.0412.18711.1013.36516.1779.53257.4594 1.003725 1.079 2.175419.6674 3.19969l-3.533 8.79271c-.5992 1.4913.7161 3.0444 2.2857 2.699l6.1521-1.3542 6.1521-1.3542c1.5695-.3455 2.1112-2.30739.9412-3.40921z" fill="#af7a22" fill-rule="evenodd"/></g><g filter="url(#l)"><path clip-rule="evenodd" d="m19.6707 7.8214c-.8226-.77465-.7454-2.1206-.6334-3.24494.0305-.30703.0138-.62404-.0561-.94173-.3558-1.61636-1.9545-2.638263-3.5709-2.28248-1.6164.35579-2.6383 1.95453-2.2825 3.5709.2019.91728.8041 1.64311 1.5827 2.03436.9594.48213 2.0522 1.10047 2.2831 2.14914l1.9528 8.87195v.0001l2.2102 10.0413c.2374 1.0787 1.3044 1.7607 2.3832 1.5233l48.1832-10.6059c1.0788-.2374 1.7608-1.3044 1.5233-2.3832l-2.2102-10.04118c0-.00003 0-.00004-.0001-.00004 0 .00001 0-.00001 0-.00003l-1.9529-8.87198c-.2308-1.04867.5014-2.06871 1.1697-2.90914.5423-.68199.7841-1.5936.5822-2.51088-.3558-1.61637-1.9545-2.63825-3.5709-2.28245-1.6163.35575-2.6382 1.9545-2.2825 3.57086.07.31769.1879.61242.3446.87823.5736.97343 1.2089 2.16256.7876 3.21099l-4.0131 9.9875c-.2465.61344-.7802 1.06544-1.4259 1.20755l-5.3224 1.17156c-.6457.14211-1.3198-.04401-1.8011-.49726l-7.9334-7.47122c-.8036-.7568-.7482-2.0596432-.6507-3.1592.0263-.29701.0084-.60302-.0591-.90967-.3558-1.61636-1.9545-2.63827-3.5709-2.28248s-2.6383 1.95453-2.2825 3.570896c.0675.306646.1798.591897.3284.8504047.5501.9570093 1.1474 2.1161693.7359 3.1404393l-4.0631 10.1118c-.2465.6135-.7802 1.0655-1.4258 1.2076l-5.3225 1.1715c-.6457.1421-1.3198-.044-1.8011-.4972z" fill="url(#M)" fill-rule="evenodd"/></g><g filter="url(#m)"><path clip-rule="evenodd" d="m19.8616 29.9046c-.0616-1.3784.9821-2.5358 2.3309-2.5851 7.0585-.258 27.1743-2.8146 49.9334-11.0103 1.2694-.4571 2.6715.2272 3.1316 1.5284.46 1.3013-.1962 2.7268-1.4657 3.184-23.2214 8.3622-43.8236 11.0134-51.3765 11.2894-1.3488.0494-2.4922-1.0281-2.5537-2.4064z" fill="url(#N)" fill-rule="evenodd"/></g><g filter="url(#n)"><path d="m44.6752 19.2453-1.3383 2.0663 1.6651.4245.5204-2.2742z" fill="#950a37"/><path d="m47.5391 19.018-2.0167.4439-.5204 2.2742 3.9643-.8726z" fill="#cb1142"/><path d="m48.217 18.4657 3.0075-1.161-2.5366-.0971z" fill="#f2b8c9"/><path d="m47.5391 19.018 1.4272 1.8455 1.3329-1.0844-2.0822-1.3134z" fill="#e1364a"/><path d="m50.2992 19.7791.9252-2.4744-3.0074 1.161z" fill="#e66679"/><path d="m48.3839 15.8266.304 1.381 2.5365.0971-.4415-2.0062z" fill="#e66679"/><path d="m41.4582 19.4544 1.8787 1.8572 1.3383-2.0663z" fill="#712532"/><path d="m41.0166 17.4482.4416 2.0062 2.2607-1.1531-.304-1.381z" fill="#cb1142"/><path d="m41.4582 19.4544 3.217-.2091-.9563-.944z" fill="#e66679"/><path d="m43.4149 16.9203.304 1.381.9563.944.8472.2166 2.0167-.4439.6779-.5523.4709-1.2581-.304-1.381z" fill="#ee9bb0"/><path d="m47.1338 13.5448 1.345-2.0361-1.6622-.4114-.5284 2.2377z" fill="#da829a"/><path d="m44.2715 13.7789 2.0167-.4439.5284-2.2377-3.9643.8726z" fill="#ed94a8"/><path d="m43.5921 14.3243-3.0095 1.1521 2.5337.0869z" fill="#950a37"/><path d="m44.2715 13.7789-1.4192-1.809-1.3358 1.0713 2.0756 1.2831z" fill="#e66679"/><path d="m41.5164 13.0412-.9338 2.4352 3.0095-1.1521z" fill="#cb1142"/><path d="m43.4149 16.9203-.2986-1.357-2.5337-.0869.434 1.9718z" fill="#cb1142"/><path d="m50.3488 13.3267-1.87-1.818-1.345 2.0361z" fill="#e66679"/><path d="m50.7829 15.2985-.4341-1.9718-2.2636 1.1429.2987 1.357z" fill="#e66679"/><path d="m50.3488 13.3267-3.215.2181.9514.9248z" fill="#ed94a8"/><path d="m48.3839 15.8266-.2987-1.357-.9514-.9248-.8456-.2098-2.0167.4439-.6794.5454-.4758 1.239.2986 1.357z" fill="#ee9bb0"/><path clip-rule="evenodd" d="m50.7733 15.2552-.434-1.9718-1.87-1.818-1.6622-.4115-3.9644.8727-1.3358 1.0713-.9338 2.4352.434 1.9718.4416 2.0062 1.8786 1.8572 1.6651.4245 3.9644-.8726 1.3329-1.0845.9252-2.4743z" fill="#7fdbb6" fill-rule="evenodd"/></g><g filter="url(#o)"><path d="m70.7121 11.4663-1.3384 2.0663 1.6651.4245.5204-2.2742z" fill="#950a37"/><path d="m73.5759 11.239-2.0167.4439-.5204 2.2742 3.9644-.8726z" fill="#cb1142"/><path d="m74.2538 10.6867 3.0075-1.16097-2.5366-.09713z" fill="#f2b8c9"/><path d="m73.5759 11.239 1.4273 1.8455 1.3329-1.0844-2.0823-1.3134z" fill="#e1364a"/><path d="m76.3361 12.0001.9252-2.47437-3.0075 1.16097z" fill="#e66679"/><path d="m74.4207 8.04758.304 1.38102 2.5366.09713-.4416-2.0062z" fill="#e66679"/><path d="m67.4951 11.6754 1.8786 1.8572 1.3384-2.0663z" fill="#712532"/><path d="m67.0535 9.66922.4416 2.00618 2.2607-1.1531-.304-1.38098z" fill="#cb1142"/><path d="m67.4951 11.6754 3.217-.2091-.9563-.944z" fill="#e66679"/><path d="m69.4518 9.14133.304 1.38107.9563.9439.8471.2166 2.0167-.4439.6779-.5523.4709-1.25808-.304-1.38103z" fill="#ee9bb0"/><path d="m73.1707 5.76579 1.345-2.03604-1.6622-.41145-.5285 2.23775z" fill="#da829a"/><path d="m70.3083 5.99993 2.0167-.44391.5285-2.23774-3.9644.87261z" fill="#ed94a8"/><path d="m69.6289 6.54536-3.0094 1.15204 2.5336.08696z" fill="#950a37"/><path d="m70.3083 5.99993-1.4192-1.80904-1.3358 1.07136 2.0756 1.2831z" fill="#e66679"/><path d="m67.5533 5.26225-.9338 2.43514 3.0094-1.15204z" fill="#cb1142"/><path d="m69.4518 9.1413-.2987-1.35695-2.5336-.08696.434 1.97181z" fill="#cb1142"/><path d="m76.3857 5.54771-1.87-1.81798-1.345 2.03604z" fill="#e66679"/><path d="m76.8197 7.51954-.434-1.97182-2.2637 1.14291.2987 1.35696z" fill="#e66679"/><path d="m76.3857 5.54772-3.215.21806.9514.92485z" fill="#ed94a8"/><path d="m74.4207 8.04757-.2986-1.35695-.9514-.92485-.8457-.20974-2.0167.4439-.6794.54542-.4758 1.239.2987 1.35695z" fill="#ee9bb0"/><path clip-rule="evenodd" d="m76.8102 7.47619-.434-1.97181-1.87-1.81797-1.6623-.41146-3.9643.87261-1.3358 1.07137-.9339 2.43514.4341 1.97181.4416 2.00622 1.8786 1.8572 1.6651.4245 3.9643-.8726 1.333-1.0845.9252-2.47431z" fill="#7fdbb6" fill-rule="evenodd"/></g><g filter="url(#p)"><path clip-rule="evenodd" d="m24.2973 19.035-.434-1.9718-1.87-1.818-1.6623-.4114-3.9643.8726-1.3358 1.0714-.9339 2.4351.4341 1.9718.4416 2.0062 1.8786 1.8572 1.6651.4245 3.9643-.8726 1.333-1.0844.9252-2.4744z" fill="#211d1a" fill-rule="evenodd"/><path d="m18.1992 23.0251-1.3384 2.0663 1.6651.4246.5204-2.2742z" fill="#950a37"/><path d="m21.063 22.7979-2.0167.4439-.5204 2.2742 3.9644-.8726z" fill="#cb1142"/><path d="m21.7409 22.2455 3.0075-1.1609-2.5366-.0972z" fill="#f2b8c9"/><path d="m21.063 22.7978 1.4273 1.8455 1.3329-1.0844-2.0823-1.3133z" fill="#e1364a"/><path d="m23.8232 23.5589.9252-2.4743-3.0075 1.161z" fill="#e66679"/><path d="m21.9078 19.6064.304 1.381 2.5366.0972-.4416-2.0062z" fill="#e66679"/><path d="m14.9822 23.2343 1.8786 1.8571 1.3384-2.0663z" fill="#712532"/><path d="m14.5406 21.2281.4416 2.0062 2.2607-1.1531-.304-1.381z" fill="#cb1142"/><path d="m14.9822 23.2342 3.217-.2091-.9563-.9439z" fill="#e66679"/><path d="m16.9389 20.7002.304 1.381.9563.9439.8471.2167 2.0167-.4439.6779-.5523.4709-1.2581-.304-1.3811z" fill="#ee9bb0"/><path d="m20.6578 17.3246 1.345-2.036-1.6622-.4115-.5285 2.2378z" fill="#da829a"/><path d="m17.7954 17.5588 2.0167-.4439.5285-2.2378-3.9644.8726z" fill="#ed94a8"/><path d="m17.116 18.1042-3.0094 1.152 2.5336.087z" fill="#950a37"/><path d="m17.7954 17.5588-1.4192-1.8091-1.3358 1.0714 2.0756 1.2831z" fill="#e66679"/><path d="m15.0404 16.8211-.9338 2.4351 3.0094-1.152z" fill="#cb1142"/><path d="m16.9389 20.7001-.2987-1.3569-2.5336-.087.434 1.9718z" fill="#cb1142"/><path d="m23.8728 17.1065-1.87-1.8179-1.345 2.036z" fill="#e66679"/><path d="m24.3068 19.0784-.434-1.9718-2.2637 1.1429.2987 1.3569z" fill="#e66679"/><path d="m23.8728 17.1066-3.215.218.9514.9249z" fill="#ed94a8"/><path d="m21.9078 19.6064-.2987-1.3569-.9513-.9249-.8457-.2097-2.0167.4439-.6794.5454-.4758 1.239.2987 1.3569z" fill="#ee9bb0"/><path clip-rule="evenodd" d="m24.2973 19.035-.434-1.9718-1.87-1.818-1.6623-.4114-3.9643.8726-1.3358 1.0714-.9339 2.4351.4341 1.9718.4416 2.0062 1.8786 1.8572 1.6651.4245 3.9643-.8726 1.333-1.0844.9252-2.4744z" fill="#7fdbb6" fill-rule="evenodd"/></g><g filter="url(#q)"><path d="m32.3614 21.9569-.803 1.2398.9991.2547.3122-1.3645z" fill="#950a37"/><path d="m34.0797 21.8205-1.21.2663-.3122 1.3646 2.3786-.5236z" fill="#cb1142"/><path d="m34.4865 21.4891 1.8044-.6966-1.5219-.0582z" fill="#f2b8c9"/><path d="m34.0797 21.8205.8564 1.1073.7997-.6507-1.2493-.788z" fill="#e1364a"/><path d="m35.7358 22.2771.5551-1.4846-1.8044.6966z" fill="#e66679"/><path d="m34.5866 19.9056.1824.8287 1.5219.0582-.2649-1.2037z" fill="#e66679"/><path d="m30.4312 22.0823 1.1272 1.1143.803-1.2397z" fill="#712532"/><path d="m30.1663 20.8786.2649 1.2038 1.3564-.6919-.1824-.8286z" fill="#cb1142"/><path d="m30.4312 22.0824 1.9302-.1255-.5738-.5664z" fill="#e66679"/><path d="m31.6052 20.5619.1824.8286.5738.5664.5083.1299 1.21-.2663.4068-.3314.2825-.7548-.1824-.8287z" fill="#ee9bb0"/><path d="m33.8366 18.5366.807-1.2217-.9974-.2468-.317 1.3426z" fill="#da829a"/><path d="m32.1192 18.6771 1.21-.2664.317-1.3426-2.3786.5235z" fill="#ed94a8"/><path d="m31.7115 19.0043-1.8056.6912 1.5201.0522z" fill="#950a37"/><path d="m32.1192 18.6771-.8516-1.0855-.8015.6429 1.2454.7698z" fill="#e66679"/><path d="m30.4661 18.2345-.5602 1.4611 1.8056-.6913z" fill="#cb1142"/><path d="m31.6052 20.5619-.1792-.8142-1.5201-.0522.2604 1.1831z" fill="#cb1142"/><path d="m35.7656 18.4057-1.122-1.0907-.807 1.2216z" fill="#e66679"/><path d="m36.026 19.5888-.2604-1.1831-1.3582.6858.1792.8142z" fill="#e66679"/><path d="m35.7656 18.4057-1.929.1309.5708.5549z" fill="#ed94a8"/><path d="m34.5866 19.9057-.1792-.8142-.5708-.5549-.5074-.1259-1.21.2664-.4077.3272-.2855.7434.1792.8142z" fill="#ee9bb0"/><path clip-rule="evenodd" d="m36.0203 19.5628-.2604-1.1831-1.122-1.0908-.9974-.2468-2.3786.5235-.8015.6429-.5603 1.461.2604 1.1831.265 1.2037 1.1272 1.1144.999.2547 2.3786-.5236.7998-.6507.5551-1.4846z" fill="#de4ba6" fill-rule="evenodd"/></g><g filter="url(#r)"><path d="m58.4061 16.2241-.803 1.2397.999.2548.3123-1.3646z" fill="#950a37"/><path d="m60.1244 16.0877-1.21.2663-.3123 1.3645 2.3786-.5235z" fill="#cb1142"/><path d="m60.5311 15.7563 1.8045-.6966-1.5219-.0583z" fill="#f2b8c9"/><path d="m60.1244 16.0877.8563 1.1073.7998-.6507-1.2494-.788z" fill="#e1364a"/><path d="m61.7805 16.5443.5551-1.4846-1.8045.6966z" fill="#e66679"/><path d="m60.6313 14.1728.1824.8286 1.5219.0583-.2649-1.2037z" fill="#e66679"/><path d="m56.4759 16.3495 1.1272 1.1143.803-1.2398z" fill="#712532"/><path d="m56.2109 15.1458.265 1.2037 1.3564-.6918-.1824-.8286z" fill="#cb1142"/><path d="m56.4759 16.3495 1.9302-.1254-.5738-.5664z" fill="#e66679"/><path d="m57.6499 14.8291.1824.8286.5738.5664.5083.1299 1.21-.2663.4067-.3314.2826-.7549-.1824-.8286z" fill="#ee9bb0"/><path d="m59.8812 12.8037.807-1.2216-.9973-.2468-.3171 1.3426z" fill="#da829a"/><path d="m58.1638 12.9443 1.21-.2664.3171-1.3426-2.3786.5235z" fill="#ed94a8"/><path d="m57.7562 13.2715-1.8057.6912 1.5202.0522z" fill="#950a37"/><path d="m58.1638 12.9442-.8515-1.0854-.8015.6428 1.2454.7699z" fill="#e66679"/><path d="m56.5108 12.5016-.5603 1.4611 1.8057-.6912z" fill="#cb1142"/><path d="m57.6499 14.8291-.1792-.8142-1.5202-.0522.2604 1.1831z" fill="#cb1142"/><path d="m61.8102 12.6729-1.122-1.0908-.807 1.2217z" fill="#e66679"/><path d="m62.0707 13.856-.2605-1.1831-1.3581.6858.1792.8141z" fill="#e66679"/><path d="m61.8102 12.6729-1.929.1308.5709.555z" fill="#ed94a8"/><path d="m60.6313 14.1728-.1792-.8141-.5709-.5549-.5074-.1259-1.21.2664-.4076.3272-.2855.7434.1792.8142z" fill="#ee9bb0"/><path clip-rule="evenodd" d="m62.0649 13.83-.2604-1.1831-1.122-1.0908-.9973-.2468-2.3786.5235-.8015.6428-.5603 1.4611.2604 1.1831.265 1.2037 1.1271 1.1143.9991.2547 2.3786-.5235.7998-.6507.5551-1.4846z" fill="#de4ba6" fill-rule="evenodd"/></g></g></g></svg>