<svg fill="none" height="128" viewBox="0 0 128 128" width="128" xmlns="http://www.w3.org/2000/svg" xmlns:xlink="http://www.w3.org/1999/xlink"><filter id="a" color-interpolation-filters="sRGB" filterUnits="userSpaceOnUse" height="24.1815" width="25.6662" x="51.1669" y="59.0685"><feFlood flood-opacity="0" result="BackgroundImageFix"/><feColorMatrix in="SourceAlpha" result="hardAlpha" type="matrix" values="0 0 0 0 0 0 0 0 0 0 0 0 0 0 0 0 0 0 127 0"/><feOffset dy="2"/><feGaussianBlur stdDeviation="2"/><feComposite in2="hardAlpha" operator="out"/><feColorMatrix type="matrix" values="0 0 0 0 0 0 0 0 0 0 0 0 0 0 0 0 0 0 0.25 0"/><feBlend in2="BackgroundImageFix" mode="normal" result="effect1_dropShadow_103_31"/><feBlend in="SourceGraphic" in2="effect1_dropShadow_103_31" mode="normal" result="shape"/></filter><filter id="b" color-interpolation-filters="sRGB" filterUnits="userSpaceOnUse" height="16" width="41" x="43.5" y="81"><feFlood flood-opacity="0" result="BackgroundImageFix"/><feColorMatrix in="SourceAlpha" result="hardAlpha" type="matrix" values="0 0 0 0 0 0 0 0 0 0 0 0 0 0 0 0 0 0 127 0"/><feOffset dy="-1"/><feGaussianBlur stdDeviation=".5"/><feComposite in2="hardAlpha" operator="out"/><feColorMatrix type="matrix" values="0 0 0 0 0.933333 0 0 0 0 0.811765 0 0 0 0 0.631373 0 0 0 1 0"/><feBlend in2="BackgroundImageFix" mode="normal" result="effect1_dropShadow_103_31"/><feBlend in="SourceGraphic" in2="effect1_dropShadow_103_31" mode="normal" result="shape"/><feColorMatrix in="SourceAlpha" result="hardAlpha" type="matrix" values="0 0 0 0 0 0 0 0 0 0 0 0 0 0 0 0 0 0 127 0"/><feMorphology in="SourceAlpha" operator="erode" radius="1" result="effect2_innerShadow_103_31"/><feOffset dy="2"/><feGaussianBlur stdDeviation="2.5"/><feComposite in2="hardAlpha" k2="-1" k3="1" operator="arithmetic"/><feColorMatrix type="matrix" values="0 0 0 0 0.196078 0 0 0 0 0.129412 0 0 0 0 0.113725 0 0 0 0.99 0"/><feBlend in2="shape" mode="normal" result="effect2_innerShadow_103_31"/></filter><filter id="c" color-interpolation-filters="sRGB" filterUnits="userSpaceOnUse" height="16" width="16" x="77" y="50"><feFlood flood-opacity="0" result="BackgroundImageFix"/><feBlend in="SourceGraphic" in2="BackgroundImageFix" mode="normal" result="shape"/><feColorMatrix in="SourceAlpha" result="hardAlpha" type="matrix" values="0 0 0 0 0 0 0 0 0 0 0 0 0 0 0 0 0 0 127 0"/><feMorphology in="SourceAlpha" operator="erode" radius="1" result="effect1_innerShadow_103_31"/><feOffset/><feGaussianBlur stdDeviation=".5"/><feComposite in2="hardAlpha" k2="-1" k3="1" operator="arithmetic"/><feColorMatrix type="matrix" values="0 0 0 0 0.513725 0 0 0 0 0.380392 0 0 0 0 0.290196 0 0 0 0.23 0"/><feBlend in2="shape" mode="normal" result="effect1_innerShadow_103_31"/></filter><filter id="d" color-interpolation-filters="sRGB" filterUnits="userSpaceOnUse" height="16" width="16" x="35" y="50"><feFlood flood-opacity="0" result="BackgroundImageFix"/><feBlend in="SourceGraphic" in2="BackgroundImageFix" mode="normal" result="shape"/><feColorMatrix in="SourceAlpha" result="hardAlpha" type="matrix" values="0 0 0 0 0 0 0 0 0 0 0 0 0 0 0 0 0 0 127 0"/><feMorphology in="SourceAlpha" operator="erode" radius="1" result="effect1_innerShadow_103_31"/><feOffset/><feGaussianBlur stdDeviation=".5"/><feComposite in2="hardAlpha" k2="-1" k3="1" operator="arithmetic"/><feColorMatrix type="matrix" values="0 0 0 0 0.513725 0 0 0 0 0.380392 0 0 0 0 0.290196 0 0 0 0.23 0"/><feBlend in2="shape" mode="normal" result="effect1_innerShadow_103_31"/></filter><filter id="e" color-interpolation-filters="sRGB" filterUnits="userSpaceOnUse" height="7" width="17" x="17" y="54"><feFlood flood-opacity="0" result="BackgroundImageFix"/><feColorMatrix in="SourceAlpha" result="hardAlpha" type="matrix" values="0 0 0 0 0 0 0 0 0 0 0 0 0 0 0 0 0 0 127 0"/><feMorphology in="SourceAlpha" operator="dilate" radius="1" result="effect1_dropShadow_103_31"/><feOffset dy="1"/><feGaussianBlur stdDeviation=".5"/><feComposite in2="hardAlpha" operator="out"/><feColorMatrix type="matrix" values="0 0 0 0 0.627451 0 0 0 0 0.509804 0 0 0 0 0.45098 0 0 0 0.62 0"/><feBlend in2="BackgroundImageFix" mode="darken" result="effect1_dropShadow_103_31"/><feBlend in="SourceGraphic" in2="effect1_dropShadow_103_31" mode="normal" result="shape"/></filter><filter id="f" color-interpolation-filters="sRGB" filterUnits="userSpaceOnUse" height="11" width="28" x="50" y="53"><feFlood flood-opacity="0" result="BackgroundImageFix"/><feColorMatrix in="SourceAlpha" result="hardAlpha" type="matrix" values="0 0 0 0 0 0 0 0 0 0 0 0 0 0 0 0 0 0 127 0"/><feOffset dy="2"/><feGaussianBlur stdDeviation="2"/><feComposite in2="hardAlpha" operator="out"/><feColorMatrix type="matrix" values="0 0 0 0 0 0 0 0 0 0 0 0 0 0 0 0 0 0 0.25 0"/><feBlend in2="BackgroundImageFix" mode="normal" result="effect1_dropShadow_103_31"/><feBlend in="SourceGraphic" in2="effect1_dropShadow_103_31" mode="normal" result="shape"/></filter><filter id="g" color-interpolation-filters="sRGB" filterUnits="userSpaceOnUse" height="7" width="17" x="94" y="54"><feFlood flood-opacity="0" result="BackgroundImageFix"/><feColorMatrix in="SourceAlpha" result="hardAlpha" type="matrix" values="0 0 0 0 0 0 0 0 0 0 0 0 0 0 0 0 0 0 127 0"/><feMorphology in="SourceAlpha" operator="dilate" radius="1" result="effect1_dropShadow_103_31"/><feOffset dy="1"/><feGaussianBlur stdDeviation=".5"/><feComposite in2="hardAlpha" operator="out"/><feColorMatrix type="matrix" values="0 0 0 0 0.627451 0 0 0 0 0.509804 0 0 0 0 0.45098 0 0 0 0.62 0"/><feBlend in2="BackgroundImageFix" mode="darken" result="effect1_dropShadow_103_31"/><feBlend in="SourceGraphic" in2="effect1_dropShadow_103_31" mode="normal" result="shape"/></filter><filter id="h" color-interpolation-filters="sRGB" filterUnits="userSpaceOnUse" height="28" width="28" x="71" y="45"><feFlood flood-opacity="0" result="BackgroundImageFix"/><feColorMatrix in="SourceAlpha" result="hardAlpha" type="matrix" values="0 0 0 0 0 0 0 0 0 0 0 0 0 0 0 0 0 0 127 0"/><feMorphology in="SourceAlpha" operator="dilate" radius="1" result="effect1_dropShadow_103_31"/><feOffset dy="1"/><feGaussianBlur stdDeviation=".5"/><feComposite in2="hardAlpha" operator="out"/><feColorMatrix type="matrix" values="0 0 0 0 0.686275 0 0 0 0 0.439216 0 0 0 0 0.419608 0 0 0 0.22 0"/><feBlend in2="BackgroundImageFix" mode="normal" result="effect1_dropShadow_103_31"/><feBlend in="SourceGraphic" in2="effect1_dropShadow_103_31" mode="normal" result="shape"/></filter><filter id="i" color-interpolation-filters="sRGB" filterUnits="userSpaceOnUse" height="28" width="28" x="29" y="45"><feFlood flood-opacity="0" result="BackgroundImageFix"/><feColorMatrix in="SourceAlpha" result="hardAlpha" type="matrix" values="0 0 0 0 0 0 0 0 0 0 0 0 0 0 0 0 0 0 127 0"/><feMorphology in="SourceAlpha" operator="dilate" radius="1" result="effect1_dropShadow_103_31"/><feOffset dy="1"/><feGaussianBlur stdDeviation=".5"/><feComposite in2="hardAlpha" operator="out"/><feColorMatrix type="matrix" values="0 0 0 0 0.686275 0 0 0 0 0.439216 0 0 0 0 0.419608 0 0 0 0.22 0"/><feBlend in2="BackgroundImageFix" mode="normal" result="effect1_dropShadow_103_31"/><feBlend in="SourceGraphic" in2="effect1_dropShadow_103_31" mode="normal" result="shape"/></filter><linearGradient id="j" gradientUnits="userSpaceOnUse" x1="64" x2="64" y1="26" y2="114"><stop offset=".369792" stop-color="#efc8b7"/><stop offset=".822917" stop-color="#dda19d"/></linearGradient><linearGradient id="k" gradientUnits="userSpaceOnUse" x1="64" x2="64" y1="26" y2="114"><stop offset="0" stop-color="#f2cdba"/><stop offset="1" stop-color="#c78178"/></linearGradient><radialGradient id="l" cx="0" cy="0" gradientTransform="matrix(0 11.5 -11 0 64 71.5)" gradientUnits="userSpaceOnUse" r="1"><stop offset="0" stop-color="#f4cedd"/><stop offset=".505208" stop-color="#db4655"/><stop offset=".744792" stop-color="#590000"/></radialGradient><linearGradient id="m"><stop offset=".25" stop-color="#db4655"/><stop offset=".40625" stop-color="#f4cedd"/><stop offset=".744792" stop-color="#6f2f3f"/></linearGradient><linearGradient id="n" gradientUnits="userSpaceOnUse" x1="64" x2="64" xlink:href="#m" y1="60" y2="83"/><linearGradient id="o"><stop offset=".494792" stop-color="#e9fefe"/><stop offset=".567708" stop-color="#e1ecf3"/></linearGradient><linearGradient id="p" gradientUnits="userSpaceOnUse" x1="85" x2="85" xlink:href="#o" y1="51" y2="65"/><linearGradient id="q" gradientUnits="userSpaceOnUse" x1="43" x2="43" xlink:href="#o" y1="51" y2="65"/><linearGradient id="r"><stop offset=".567708" stop-color="#68615a"/><stop offset=".619792" stop-color="#2d2925"/></linearGradient><radialGradient id="s" cx="0" cy="0" gradientTransform="matrix(-13.77144625 31.59371479 -54.65709817 -23.82458962 55.8201 .576595)" gradientUnits="userSpaceOnUse" r="1" xlink:href="#r"/><radialGradient id="t" cx="0" cy="0" gradientTransform="matrix(12.35388947 24.30278423 -33.29202866 16.92341249 89.6415 14.8288)" gradientUnits="userSpaceOnUse" r="1" xlink:href="#r"/><linearGradient id="u"><stop offset="0" stop-color="#8c8281"/><stop offset="1" stop-color="#5f5452"/></linearGradient><linearGradient id="v" gradientUnits="userSpaceOnUse" x1="20.5" x2="32" xlink:href="#u" y1="58" y2="58"/><linearGradient id="w" gradientUnits="userSpaceOnUse" x1="54" x2="74" y1="58" y2="58"><stop offset="0" stop-color="#5f5452"/><stop offset=".495267" stop-color="#403332"/><stop offset="1" stop-color="#5f5452"/></linearGradient><linearGradient id="x" gradientUnits="userSpaceOnUse" x1="107.5" x2="96" xlink:href="#u" y1="58" y2="58"/><linearGradient id="y"><stop offset=".505108" stop-color="#8c8281"/><stop offset=".505208" stop-color="#5f5452"/></linearGradient><linearGradient id="z" gradientUnits="userSpaceOnUse" x1="85" x2="85" xlink:href="#y" y1="46" y2="70"/><linearGradient id="A" gradientUnits="userSpaceOnUse" x1="43" x2="43" xlink:href="#y" y1="46" y2="70"/><linearGradient id="B"><stop offset=".25" stop-color="#db4655"/><stop offset=".40625" stop-color="#f4cedd"/><stop offset=".744792" stop-color="#590000"/></linearGradient><linearGradient id="C" gradientUnits="userSpaceOnUse" x1="111.5" x2="111.5" xlink:href="#B" y1="53" y2="84"/><linearGradient id="D" gradientUnits="userSpaceOnUse" x1="111.5" x2="111.5" xlink:href="#m" y1="53" y2="84"/><linearGradient id="E" gradientUnits="userSpaceOnUse" x1="16.5" x2="16.5" xlink:href="#B" y1="53" y2="84"/><linearGradient id="F" gradientUnits="userSpaceOnUse" x1="16.5" x2="16.5" xlink:href="#m" y1="53" y2="84"/><rect fill="url(#j)" height="83" rx="14.5" stroke="url(#k)" stroke-width="5" width="83" x="22.5" y="28.5"/><g filter="url(#a)"><path d="m63.1246 61.5851c.3804-.6887 1.3704-.6887 1.7508 0l7.8317 14.1815c.368.6665-.1141 1.4834-.8754 1.4834h-15.6634c-.7613 0-1.2434-.8169-.8754-1.4834z" fill="url(#l)"/><path d="m63.5623 61.8268c.1902-.3443.6852-.3443.8754 0l7.8317 14.1815c.184.3332-.057.7417-.4377.7417h-15.6634c-.3807 0-.6217-.4085-.4377-.7417z" stroke="url(#n)"/></g><g filter="url(#b)"><rect fill="#fff" height="12" rx="6" width="39" x="44.5" y="83"/><rect height="10" rx="5" stroke="#1d0f0c" stroke-width="2" width="37" x="45.5" y="84"/></g><g filter="url(#c)"><ellipse cx="85" cy="58" fill="url(#p)" rx="7" ry="7" transform="matrix(-1 0 0 -1 170 116)"/></g><path d="m85 50.5c-4.1421 0-7.5 3.3579-7.5 7.5s3.3579 7.5 7.5 7.5 7.5-3.3579 7.5-7.5-3.3579-7.5-7.5-7.5z" stroke="#000" stroke-opacity=".2"/><g filter="url(#d)"><ellipse cx="43" cy="58" fill="url(#q)" rx="7" ry="7" transform="matrix(-1 0 0 -1 86 116)"/></g><path d="m43 50.5c-4.1421 0-7.5 3.3579-7.5 7.5s3.3579 7.5 7.5 7.5 7.5-3.3579 7.5-7.5-3.3579-7.5-7.5-7.5z" stroke="#000" stroke-opacity=".2"/><g fill="#32211d"><path d="m63 85h2v8h-2z"/><path d="m52 85h2v8h-2z"/><path d="m74 85h2v8h-2z"/></g><path d="m20 56.1269v-.5h-.5-1.9985c.1477-25.3244 11.5153-41.5811 24.6917-47.10227 6.632-2.77889 13.7384-2.85127 20.1666-.00084 6.2627 2.77701 11.9229 8.34741 15.8712 16.98231-9.2969.1466-18.8685 2.9083-26.924 5.2325-.6939.2002-1.3767.3972-2.047.589-4.3541 1.2457-8.1638 2.2664-11.175 2.5675-3.0443.3044-5.0516-.1495-6.0661-1.5774l-.1495-.2105h-.2581c-1.1707 0-2.3226.5982-3.3639 1.5175-1.0476.9249-2.0315 2.2158-2.8766 3.7058-1.6886 2.9767-2.8708 6.8321-2.8708 10.3616v14.9348h-2.5z" fill="url(#s)" stroke="#807469"/><path d="m105.997 62.5c-.236-21.1772-15.4621-33.3997-25.7489-36.6585 7.0872-4.1005 12.541-5.0763 16.7347-4.0511 4.3742 1.0693 7.5122 4.3498 9.7572 8.8695 4.425 8.9122 5.233 22.3562 5.259 31.8401z" fill="url(#t)" stroke="#807469"/><g filter="url(#e)"><path d="m19 55h13v3h-13z" fill="#fff"/><path d="m19.75 55.75h11.5v1.5h-11.5z" stroke="url(#v)" stroke-width="1.5"/></g><g filter="url(#f)"><path d="m54 55h20v3h-20z" fill="url(#w)"/></g><g filter="url(#g)"><path d="m96 55h13v3h-13z" fill="#fff"/><path d="m96.75 55.75h11.5v1.5h-11.5z" stroke="url(#x)" stroke-width="1.5"/></g><g filter="url(#h)"><circle cx="85" cy="58" fill="#fff" r="12" transform="matrix(-1 0 0 -1 170 116)"/><circle cx="85" cy="58" r="10" stroke="url(#z)" stroke-width="4" transform="matrix(-1 0 0 -1 170 116)"/></g><g filter="url(#i)"><circle cx="43" cy="58" fill="#fff" r="12" transform="matrix(-1 0 0 -1 86 116)"/><circle cx="43" cy="58" r="10" stroke="url(#A)" stroke-width="4" transform="matrix(-1 0 0 -1 86 116)"/></g><circle cx="85" cy="58" r="11.5" stroke="#000" stroke-opacity=".2" transform="matrix(-1 0 0 -1 170 116)"/><circle cx="43" cy="58" r="11.5" stroke="#000" stroke-opacity=".2" transform="matrix(-1 0 0 -1 86 116)"/><rect fill="url(#C)" height="30" rx="3" width="6" x="108.5" y="53.5"/><rect height="30" rx="3" stroke="url(#D)" width="6" x="108.5" y="53.5"/><rect fill="url(#E)" height="30" rx="3" width="6" x="13.5" y="53.5"/><rect height="30" rx="3" stroke="url(#F)" width="6" x="13.5" y="53.5"/></svg>