<svg fill="none" height="128" viewBox="0 0 128 128" width="128" xmlns="http://www.w3.org/2000/svg" xmlns:xlink="http://www.w3.org/1999/xlink"><filter id="a" color-interpolation-filters="sRGB" filterUnits="userSpaceOnUse" height="24.1815" width="25.6663" x="51.1669" y="59.0685"><feFlood flood-opacity="0" result="BackgroundImageFix"/><feColorMatrix in="SourceAlpha" result="hardAlpha" type="matrix" values="0 0 0 0 0 0 0 0 0 0 0 0 0 0 0 0 0 0 127 0"/><feOffset dy="2"/><feGaussianBlur stdDeviation="2"/><feComposite in2="hardAlpha" operator="out"/><feColorMatrix type="matrix" values="0 0 0 0 0 0 0 0 0 0 0 0 0 0 0 0 0 0 0.25 0"/><feBlend in2="BackgroundImageFix" mode="normal" result="effect1_dropShadow_2_2"/><feBlend in="SourceGraphic" in2="effect1_dropShadow_2_2" mode="normal" result="shape"/></filter><filter id="b" color-interpolation-filters="sRGB" filterUnits="userSpaceOnUse" height="16" width="41" x="44" y="81"><feFlood flood-opacity="0" result="BackgroundImageFix"/><feColorMatrix in="SourceAlpha" result="hardAlpha" type="matrix" values="0 0 0 0 0 0 0 0 0 0 0 0 0 0 0 0 0 0 127 0"/><feOffset dy="-1"/><feGaussianBlur stdDeviation=".5"/><feComposite in2="hardAlpha" operator="out"/><feColorMatrix type="matrix" values="0 0 0 0 0.933333 0 0 0 0 0.811765 0 0 0 0 0.631373 0 0 0 1 0"/><feBlend in2="BackgroundImageFix" mode="normal" result="effect1_dropShadow_2_2"/><feBlend in="SourceGraphic" in2="effect1_dropShadow_2_2" mode="normal" result="shape"/><feColorMatrix in="SourceAlpha" result="hardAlpha" type="matrix" values="0 0 0 0 0 0 0 0 0 0 0 0 0 0 0 0 0 0 127 0"/><feMorphology in="SourceAlpha" operator="erode" radius="1" result="effect2_innerShadow_2_2"/><feOffset dy="2"/><feGaussianBlur stdDeviation="2.5"/><feComposite in2="hardAlpha" k2="-1" k3="1" operator="arithmetic"/><feColorMatrix type="matrix" values="0 0 0 0 0.196078 0 0 0 0 0.129412 0 0 0 0 0.113725 0 0 0 0.99 0"/><feBlend in2="shape" mode="normal" result="effect2_innerShadow_2_2"/></filter><filter id="c" color-interpolation-filters="sRGB" filterUnits="userSpaceOnUse" height="28" width="28" x="29" y="45"><feFlood flood-opacity="0" result="BackgroundImageFix"/><feColorMatrix in="SourceAlpha" result="hardAlpha" type="matrix" values="0 0 0 0 0 0 0 0 0 0 0 0 0 0 0 0 0 0 127 0"/><feMorphology in="SourceAlpha" operator="dilate" radius="1" result="effect1_dropShadow_2_2"/><feOffset dy="1"/><feGaussianBlur stdDeviation=".5"/><feComposite in2="hardAlpha" operator="out"/><feColorMatrix type="matrix" values="0 0 0 0 0.957778 0 0 0 0 0.884416 0 0 0 0 0.775556 0 0 0 0.6 0"/><feBlend in2="BackgroundImageFix" mode="normal" result="effect1_dropShadow_2_2"/><feBlend in="SourceGraphic" in2="effect1_dropShadow_2_2" mode="normal" result="shape"/></filter><filter id="d" color-interpolation-filters="sRGB" filterUnits="userSpaceOnUse" height="16" width="16" x="35" y="50"><feFlood flood-opacity="0" result="BackgroundImageFix"/><feBlend in="SourceGraphic" in2="BackgroundImageFix" mode="normal" result="shape"/><feColorMatrix in="SourceAlpha" result="hardAlpha" type="matrix" values="0 0 0 0 0 0 0 0 0 0 0 0 0 0 0 0 0 0 127 0"/><feMorphology in="SourceAlpha" operator="erode" radius="1" result="effect1_innerShadow_2_2"/><feOffset/><feGaussianBlur stdDeviation=".5"/><feComposite in2="hardAlpha" k2="-1" k3="1" operator="arithmetic"/><feColorMatrix type="matrix" values="0 0 0 0 0.513725 0 0 0 0 0.380392 0 0 0 0 0.290196 0 0 0 0.23 0"/><feBlend in2="shape" mode="normal" result="effect1_innerShadow_2_2"/></filter><filter id="e" color-interpolation-filters="sRGB" filterUnits="userSpaceOnUse" height="24" width="24" x="31" y="46"><feFlood flood-opacity="0" result="BackgroundImageFix"/><feBlend in="SourceGraphic" in2="BackgroundImageFix" mode="normal" result="shape"/><feColorMatrix in="SourceAlpha" result="hardAlpha" type="matrix" values="0 0 0 0 0 0 0 0 0 0 0 0 0 0 0 0 0 0 127 0"/><feMorphology in="SourceAlpha" operator="erode" radius="1" result="effect1_innerShadow_2_2"/><feOffset/><feGaussianBlur stdDeviation=".5"/><feComposite in2="hardAlpha" k2="-1" k3="1" operator="arithmetic"/><feColorMatrix type="matrix" values="0 0 0 0 0.513725 0 0 0 0 0.380392 0 0 0 0 0.290196 0 0 0 0.23 0"/><feBlend in2="shape" mode="normal" result="effect1_innerShadow_2_2"/></filter><filter id="f" color-interpolation-filters="sRGB" filterUnits="userSpaceOnUse" height="28" width="28" x="71" y="45"><feFlood flood-opacity="0" result="BackgroundImageFix"/><feColorMatrix in="SourceAlpha" result="hardAlpha" type="matrix" values="0 0 0 0 0 0 0 0 0 0 0 0 0 0 0 0 0 0 127 0"/><feMorphology in="SourceAlpha" operator="dilate" radius="1" result="effect1_dropShadow_2_2"/><feOffset dy="1"/><feGaussianBlur stdDeviation=".5"/><feComposite in2="hardAlpha" operator="out"/><feColorMatrix type="matrix" values="0 0 0 0 0.957778 0 0 0 0 0.884416 0 0 0 0 0.775556 0 0 0 0.6 0"/><feBlend in2="BackgroundImageFix" mode="normal" result="effect1_dropShadow_2_2"/><feBlend in="SourceGraphic" in2="effect1_dropShadow_2_2" mode="normal" result="shape"/></filter><filter id="g" color-interpolation-filters="sRGB" filterUnits="userSpaceOnUse" height="16" width="16" x="77" y="50"><feFlood flood-opacity="0" result="BackgroundImageFix"/><feBlend in="SourceGraphic" in2="BackgroundImageFix" mode="normal" result="shape"/><feColorMatrix in="SourceAlpha" result="hardAlpha" type="matrix" values="0 0 0 0 0 0 0 0 0 0 0 0 0 0 0 0 0 0 127 0"/><feMorphology in="SourceAlpha" operator="erode" radius="1" result="effect1_innerShadow_2_2"/><feOffset/><feGaussianBlur stdDeviation=".5"/><feComposite in2="hardAlpha" k2="-1" k3="1" operator="arithmetic"/><feColorMatrix type="matrix" values="0 0 0 0 0.513725 0 0 0 0 0.380392 0 0 0 0 0.290196 0 0 0 0.23 0"/><feBlend in2="shape" mode="normal" result="effect1_innerShadow_2_2"/></filter><filter id="h" color-interpolation-filters="sRGB" filterUnits="userSpaceOnUse" height="24" width="24" x="73" y="46"><feFlood flood-opacity="0" result="BackgroundImageFix"/><feBlend in="SourceGraphic" in2="BackgroundImageFix" mode="normal" result="shape"/><feColorMatrix in="SourceAlpha" result="hardAlpha" type="matrix" values="0 0 0 0 0 0 0 0 0 0 0 0 0 0 0 0 0 0 127 0"/><feMorphology in="SourceAlpha" operator="erode" radius="1" result="effect1_innerShadow_2_2"/><feOffset/><feGaussianBlur stdDeviation=".5"/><feComposite in2="hardAlpha" k2="-1" k3="1" operator="arithmetic"/><feColorMatrix type="matrix" values="0 0 0 0 0.513725 0 0 0 0 0.380392 0 0 0 0 0.290196 0 0 0 0.23 0"/><feBlend in2="shape" mode="normal" result="effect1_innerShadow_2_2"/></filter><linearGradient id="i" gradientUnits="userSpaceOnUse" x1="64" x2="64" y1="26" y2="114"><stop offset=".369792" stop-color="#edcea0"/><stop offset=".822917" stop-color="#987c5c"/></linearGradient><linearGradient id="j" gradientUnits="userSpaceOnUse" x1="64" x2="64" y1="26" y2="114"><stop offset="0" stop-color="#ecdbbd"/><stop offset="1" stop-color="#815e47"/></linearGradient><radialGradient id="k" cx="0" cy="0" gradientTransform="matrix(0 11.5 -11 0 64 71.5)" gradientUnits="userSpaceOnUse" r="1"><stop offset="0" stop-color="#f4cedd"/><stop offset=".505208" stop-color="#db4655"/><stop offset=".744792" stop-color="#590000"/></radialGradient><linearGradient id="l"><stop offset=".25" stop-color="#db4655"/><stop offset=".40625" stop-color="#f4cedd"/><stop offset=".744792" stop-color="#6f2f3f"/></linearGradient><linearGradient id="m" gradientUnits="userSpaceOnUse" x1="64" x2="64" xlink:href="#l" y1="60" y2="83"/><linearGradient id="n"><stop offset=".25" stop-color="#db4655"/><stop offset=".40625" stop-color="#f4cedd"/><stop offset=".744792" stop-color="#590000"/></linearGradient><linearGradient id="o" gradientUnits="userSpaceOnUse" x1="16.5" x2="16.5" xlink:href="#n" y1="53" y2="84"/><linearGradient id="p" gradientUnits="userSpaceOnUse" x1="16.5" x2="16.5" xlink:href="#l" y1="53" y2="84"/><linearGradient id="q" gradientUnits="userSpaceOnUse" x1="111.5" x2="111.5" xlink:href="#n" y1="53" y2="84"/><linearGradient id="r" gradientUnits="userSpaceOnUse" x1="111.5" x2="111.5" xlink:href="#l" y1="53" y2="84"/><linearGradient id="s"><stop offset="0" stop-color="#fdc1ac"/><stop offset=".495379" stop-color="#e9af9b"/><stop offset=".500363" stop-color="#784b3a"/><stop offset="1" stop-color="#693e2d"/></linearGradient><linearGradient id="t" gradientUnits="userSpaceOnUse" x1="43" x2="43" xlink:href="#s" y1="46" y2="70"/><linearGradient id="u"><stop offset=".494792" stop-color="#e9fefe"/><stop offset=".567708" stop-color="#e1ecf3"/></linearGradient><linearGradient id="v" gradientUnits="userSpaceOnUse" x1="43" x2="43" xlink:href="#u" y1="51" y2="65"/><linearGradient id="w" gradientUnits="userSpaceOnUse" x1="85" x2="85" xlink:href="#s" y1="46" y2="70"/><linearGradient id="x" gradientUnits="userSpaceOnUse" x1="85" x2="85" xlink:href="#u" y1="51" y2="65"/><radialGradient id="y" cx="0" cy="0" gradientTransform="matrix(0 20.5556 -35.9482 0 51.8463 15.1944)" gradientUnits="userSpaceOnUse" r="1"><stop offset="0" stop-color="#959fa1"/><stop offset="1" stop-color="#423a38"/></radialGradient><linearGradient id="z" gradientUnits="userSpaceOnUse" x1="51.8463" x2="51.8463" y1="8" y2="45"><stop offset="0" stop-color="#211d1a"/><stop offset="1" stop-color="#211d1a" stop-opacity="0"/></linearGradient><mask id="A" fill="#fff"><path clip-rule="evenodd" d="m79 26c-2.1667-6-12.3-18-35.5-18s-25.3333 24.6666-23.5 37v3c0-9.3888 7.6112-17 17-17h54c9.389 0 17 7.6112 17 17v-5c0-9.3888-7.611-17-17-17z" fill="#fff" fill-rule="evenodd"/></mask><rect fill="url(#i)" height="83" rx="14.5" stroke="url(#j)" stroke-width="5" width="83" x="22.5" y="28.5"/><g filter="url(#a)"><path d="m63.1246 61.5851c.3804-.6887 1.3704-.6887 1.7508 0l7.8317 14.1815c.368.6665-.1141 1.4834-.8754 1.4834h-15.6634c-.7613 0-1.2434-.8169-.8754-1.4834z" fill="url(#k)"/><path d="m63.5623 61.8268c.1902-.3443.6852-.3443.8754 0l7.8317 14.1815c.184.3332-.057.7417-.4377.7417h-15.6634c-.3807 0-.6217-.4085-.4377-.7417z" stroke="url(#m)"/></g><g filter="url(#b)"><rect fill="#fff" height="12" rx="6" width="39" x="45" y="83"/><rect height="10" rx="5" stroke="#32211d" stroke-width="2" width="37" x="46" y="84"/></g><rect fill="url(#o)" height="30" rx="3" width="6" x="13.5" y="53.5"/><rect height="30" rx="3" stroke="url(#p)" width="6" x="13.5" y="53.5"/><rect fill="url(#q)" height="30" rx="3" width="6" x="108.5" y="53.5"/><rect height="30" rx="3" stroke="url(#r)" width="6" x="108.5" y="53.5"/><g filter="url(#c)"><circle cx="43" cy="58" fill="#fff" r="12"/><circle cx="43" cy="58" r="10" stroke="url(#t)" stroke-width="4"/></g><g filter="url(#d)"><circle cx="43" cy="58" fill="url(#v)" r="7"/></g><circle cx="43" cy="58" r="7.5" stroke="#000" stroke-opacity=".2"/><g filter="url(#e)"><circle cx="43" cy="58" r="11.5" stroke="#000" stroke-opacity=".2"/></g><g filter="url(#f)"><circle cx="85" cy="58" fill="#fff" r="12"/><circle cx="85" cy="58" r="10" stroke="url(#w)" stroke-width="4"/></g><g filter="url(#g)"><circle cx="85" cy="58" fill="url(#x)" r="7"/></g><circle cx="85" cy="58" r="7.5" stroke="#000" stroke-opacity=".2"/><g filter="url(#h)"><circle cx="85" cy="58" r="11.5" stroke="#000" stroke-opacity=".2"/></g><g fill="#32211d"><path d="m63 85h2v8h-2z"/><path d="m52 85h2v8h-2z"/><path d="m74 85h2v8h-2z"/></g><path clip-rule="evenodd" d="m79 26c-2.1667-6-12.3-18-35.5-18s-25.3333 24.6666-23.5 37v3c0-9.3888 7.6112-17 17-17h54c9.389 0 17 7.6112 17 17v-5c0-9.3888-7.611-17-17-17z" fill="url(#y)" fill-rule="evenodd"/><path d="m79 26-.9405.3396.2384.6604h.7021zm-59 19h1v-.074l-.0109-.0731zm23.5-36c22.8295 0 32.5524 11.7817 34.5595 17.3396l1.8811-.6792c-2.3263-6.4421-12.8701-18.6604-36.4406-18.6604zm-22.5109 35.8529c-.9005-6.0584-.8143-15.1095 2.2968-22.5941 1.5496-3.7279 3.8342-7.0314 7.0863-9.4041 3.2437-2.3665 7.5149-3.8547 13.1278-3.8547v-2c-5.987 0-10.6825 1.59508-14.3065 4.239-3.6156 2.6378-6.0998 6.2717-7.7544 10.2521-3.2972 7.9321-3.361 17.381-2.4282 23.6559zm-1.9891.1471v3h2v-3zm2 3c0-8.8366 7.1634-16 16-16v-2c-9.9411 0-18 8.0589-18 18zm16-16h54v-2h-54zm54 0c8.8366 0 16 7.1634 16 16h2c0-9.9411-8.059-18-18-18zm18 16v-5h-2v5zm0-5c0-9.9411-8.059-18-18-18v2c8.8366 0 16 7.1634 16 16zm-18-18h-12v2h12z" fill="url(#z)" mask="url(#A)"/></svg>