<svg width="40" height="40" viewBox="0 0 40 40" fill="none" xmlns="http://www.w3.org/2000/svg">
<path d="M28.6371 32.9998H28.2854H28.2456C25.9125 31.0005 22.8517 29.7877 19.5003 29.7877C16.1481 29.7877 13.0875 31.0005 10.7542 32.9998H10.7298H8.95556H5.02969H5L5.13377 32.8132L8.93938 25.984L14.8604 15.3589L17.7154 20.4643L14.4791 26.2719C16.0697 25.8107 17.75 25.5629 19.5003 25.5629C21.2502 25.5629 22.9514 25.8139 24.5504 26.2808L22.8635 23.245L22.8684 23.2331L22.4905 22.5569L20.8281 19.5837L19.5191 17.2283L19.5151 17.2351L16.6602 12.1293L17.7928 10.0972L19.5189 7L33.8677 32.8152L34 33H33.9705H31.3036L28.6371 32.9998Z" fill="#032C4F"/>
</svg>
