<svg width="22" height="20" viewBox="0 0 22 20" fill="none" xmlns="http://www.w3.org/2000/svg">
<path d="M17.9316 19.9999H17.6648H17.6346C15.8646 18.4619 13.5426 17.529 11.0002 17.529C8.4572 17.529 6.13535 18.4619 4.36524 19.9999H4.34676H3.00077H0.0225198H0L0.101483 19.8563L2.9885 14.6031L7.48034 6.42993L9.64614 10.3572L7.19104 14.8245C8.39773 14.4698 9.67241 14.2792 11.0002 14.2792C12.3277 14.2792 13.6183 14.4722 14.8313 14.8314L13.5516 12.4961L13.5554 12.487L13.2687 11.9668L12.0076 9.67975L11.0145 7.86791L11.0115 7.87319L8.84568 3.94565L9.70489 2.38248L11.0144 0L21.8997 19.8578L22 20H21.9776H19.9544L17.9316 19.9999Z" fill="white"/>
</svg>
